<?xml version="1.0" encoding="UTF-8"?>
<svg xmlns="http://www.w3.org/2000/svg" viewBox="0 0 50.92 51.03">
  <defs>
    <style>
      .cls-1, .cls-2 {
        fill: #231f20;
      }

      .cls-3 {
        fill: #b8922e;
      }

      .cls-4 {
        fill: #b99651;
      }

      .cls-5 {
        fill: #173041;
      }

      .cls-6 {
        fill: #fff;
      }

      .cls-2 {
        fill-rule: evenodd;
      }
    </style>
  </defs>
  <g id="Border">
    <rect class="cls-4" x="0" y="0" width="50.92" height="51.04"/>
    <rect class="cls-6" x="2.14" y="2.2" width="46.64" height="46.64"/>
  </g>
  <g id="QR_Code_Default">
    <g>
      <path class="cls-5" d="M17,5.02c.4,0,.73.33.73.73s-.33.73-.73.73-.73-.33-.73-.73.33-.73.73-.73Z"/>
      <path class="cls-5" d="M19.83,5.02c.4,0,.73.33.73.73s-.33.73-.73.73-.73-.33-.73-.73.33-.73.73-.73Z"/>
      <path class="cls-5" d="M29.72,5.02c.4,0,.73.33.73.73s-.33.73-.73.73-.73-.33-.73-.73.33-.73.73-.73Z"/>
      <path class="cls-5" d="M31.13,5.02c.4,0,.73.33.73.73s-.33.73-.73.73-.73-.33-.73-.73.33-.73.73-.73Z"/>
      <path class="cls-5" d="M33.96,5.02c.4,0,.73.33.73.73s-.33.73-.73.73-.73-.33-.73-.73.33-.73.73-.73Z"/>
      <path class="cls-5" d="M17,6.44c.4,0,.73.33.73.73s-.33.73-.73.73-.73-.33-.73-.73.33-.73.73-.73Z"/>
      <path class="cls-5" d="M18.41,6.44c.4,0,.73.33.73.73s-.33.73-.73.73-.73-.33-.73-.73.33-.73.73-.73Z"/>
      <path class="cls-5" d="M19.83,6.44c.4,0,.73.33.73.73s-.33.73-.73.73-.73-.33-.73-.73.33-.73.73-.73Z"/>
      <path class="cls-5" d="M25.48,6.44c.4,0,.73.33.73.73s-.33.73-.73.73-.73-.33-.73-.73.33-.73.73-.73Z"/>
      <path class="cls-5" d="M26.89,6.44c.4,0,.73.33.73.73s-.33.73-.73.73-.73-.33-.73-.73.33-.73.73-.73Z"/>
      <path class="cls-5" d="M28.31,6.44c.4,0,.73.33.73.73s-.33.73-.73.73-.73-.33-.73-.73.33-.73.73-.73Z"/>
      <path class="cls-5" d="M29.72,6.44c.4,0,.73.33.73.73s-.33.73-.73.73-.73-.33-.73-.73.33-.73.73-.73Z"/>
      <path class="cls-5" d="M32.55,6.44c.4,0,.73.33.73.73s-.33.73-.73.73-.73-.33-.73-.73.33-.73.73-.73Z"/>
      <path class="cls-5" d="M17,7.85c.4,0,.73.33.73.73s-.33.73-.73.73-.73-.33-.73-.73.33-.73.73-.73Z"/>
      <path class="cls-5" d="M26.89,7.85c.4,0,.73.33.73.73s-.33.73-.73.73-.73-.33-.73-.73.33-.73.73-.73Z"/>
      <path class="cls-5" d="M31.13,7.85c.4,0,.73.33.73.73s-.33.73-.73.73-.73-.33-.73-.73.33-.73.73-.73Z"/>
      <circle class="cls-5" cx="32.55" cy="8.58" r=".73"/>
      <path class="cls-5" d="M33.96,7.85c.4,0,.73.33.73.73s-.33.73-.73.73-.73-.33-.73-.73.33-.73.73-.73Z"/>
      <path class="cls-5" d="M19.83,9.26c.4,0,.73.33.73.73s-.33.73-.73.73-.73-.33-.73-.73.33-.73.73-.73Z"/>
      <path class="cls-5" d="M24.07,9.26c.4,0,.73.33.73.73s-.33.73-.73.73-.73-.33-.73-.73.33-.73.73-.73Z"/>
      <path class="cls-5" d="M25.48,9.26c.4,0,.73.33.73.73s-.33.73-.73.73-.73-.33-.73-.73.33-.73.73-.73Z"/>
      <path class="cls-5" d="M26.89,9.26c.4,0,.73.33.73.73s-.33.73-.73.73-.73-.33-.73-.73.33-.73.73-.73Z"/>
      <path class="cls-5" d="M28.31,9.26c.4,0,.73.33.73.73s-.33.73-.73.73-.73-.33-.73-.73.33-.73.73-.73Z"/>
      <path class="cls-5" d="M29.72,9.26c.4,0,.73.33.73.73s-.33.73-.73.73-.73-.33-.73-.73.33-.73.73-.73Z"/>
      <path class="cls-5" d="M32.55,9.26c.4,0,.73.33.73.73s-.33.73-.73.73-.73-.33-.73-.73.33-.73.73-.73Z"/>
      <path class="cls-5" d="M19.83,10.68c.4,0,.73.33.73.73s-.33.73-.73.73-.73-.33-.73-.73.33-.73.73-.73Z"/>
      <circle class="cls-5" cx="21.24" cy="11.41" r=".73"/>
      <path class="cls-5" d="M22.65,10.68c.4,0,.73.33.73.73s-.33.73-.73.73-.73-.33-.73-.73.33-.73.73-.73Z"/>
      <path class="cls-5" d="M28.31,10.68c.4,0,.73.33.73.73s-.33.73-.73.73-.73-.33-.73-.73.33-.73.73-.73Z"/>
      <path class="cls-5" d="M31.13,10.68c.4,0,.73.33.73.73s-.33.73-.73.73-.73-.33-.73-.73.33-.73.73-.73Z"/>
      <circle class="cls-5" cx="32.55" cy="11.41" r=".73"/>
      <path class="cls-5" d="M17,12.09c.4,0,.73.33.73.73s-.33.73-.73.73-.73-.33-.73-.73.33-.73.73-.73Z"/>
      <path class="cls-5" d="M22.65,12.09c.4,0,.73.33.73.73s-.33.73-.73.73-.73-.33-.73-.73.33-.73.73-.73Z"/>
      <path class="cls-5" d="M26.89,12.09c.4,0,.73.33.73.73s-.33.73-.73.73-.73-.33-.73-.73.33-.73.73-.73Z"/>
      <path class="cls-5" d="M28.31,12.09c.4,0,.73.33.73.73s-.33.73-.73.73-.73-.33-.73-.73.33-.73.73-.73Z"/>
      <path class="cls-5" d="M31.13,12.09c.4,0,.73.33.73.73s-.33.73-.73.73-.73-.33-.73-.73.33-.73.73-.73Z"/>
      <path class="cls-5" d="M17,13.5c.4,0,.73.33.73.73s-.33.73-.73.73-.73-.33-.73-.73.33-.73.73-.73Z"/>
      <path class="cls-5" d="M19.83,13.5c.4,0,.73.33.73.73s-.33.73-.73.73-.73-.33-.73-.73.33-.73.73-.73Z"/>
      <path class="cls-5" d="M22.65,13.5c.4,0,.73.33.73.73s-.33.73-.73.73-.73-.33-.73-.73.33-.73.73-.73Z"/>
      <path class="cls-5" d="M25.48,13.5c.4,0,.73.33.73.73s-.33.73-.73.73-.73-.33-.73-.73.33-.73.73-.73Z"/>
      <path class="cls-5" d="M28.31,13.5c.4,0,.73.33.73.73s-.33.73-.73.73-.73-.33-.73-.73.33-.73.73-.73Z"/>
      <path class="cls-5" d="M31.13,13.5c.4,0,.73.33.73.73s-.33.73-.73.73-.73-.33-.73-.73.33-.73.73-.73Z"/>
      <path class="cls-5" d="M33.96,13.5c.4,0,.73.33.73.73s-.33.73-.73.73-.73-.33-.73-.73.33-.73.73-.73Z"/>
      <path class="cls-5" d="M17,14.92c.4,0,.73.33.73.73s-.33.73-.73.73-.73-.33-.73-.73.33-.73.73-.73Z"/>
      <circle class="cls-5" cx="18.41" cy="15.65" r=".73"/>
      <path class="cls-5" d="M19.83,14.92c.4,0,.73.33.73.73s-.33.73-.73.73-.73-.33-.73-.73.33-.73.73-.73Z"/>
      <circle class="cls-5" cx="21.24" cy="15.65" r=".73"/>
      <path class="cls-5" d="M22.65,14.92c.4,0,.73.33.73.73s-.33.73-.73.73-.73-.33-.73-.73.33-.73.73-.73Z"/>
      <path class="cls-5" d="M24.07,14.92c.4,0,.73.33.73.73s-.33.73-.73.73-.73-.33-.73-.73.33-.73.73-.73Z"/>
      <circle class="cls-5" cx="25.48" cy="15.65" r=".73"/>
      <path class="cls-5" d="M26.89,14.92c.4,0,.73.33.73.73s-.33.73-.73.73-.73-.33-.73-.73.33-.73.73-.73Z"/>
      <path class="cls-5" d="M28.31,14.92c.4,0,.73.33.73.73s-.33.73-.73.73-.73-.33-.73-.73.33-.73.73-.73Z"/>
      <circle class="cls-5" cx="32.55" cy="15.65" r=".73"/>
      <path class="cls-5" d="M8.52,16.33c.4,0,.73.33.73.73s-.33.73-.73.73-.73-.33-.73-.73.33-.73.73-.73Z"/>
      <path class="cls-5" d="M9.93,16.33c.4,0,.73.33.73.73s-.33.73-.73.73-.73-.33-.73-.73.33-.73.73-.73Z"/>
      <path class="cls-5" d="M11.35,16.33c.4,0,.73.33.73.73s-.33.73-.73.73-.73-.33-.73-.73.33-.73.73-.73Z"/>
      <path class="cls-5" d="M14.17,16.33c.4,0,.73.33.73.73s-.33.73-.73.73-.73-.33-.73-.73.33-.73.73-.73Z"/>
      <path class="cls-5" d="M17,16.33c.4,0,.73.33.73.73s-.33.73-.73.73-.73-.33-.73-.73.33-.73.73-.73Z"/>
      <path class="cls-5" d="M18.41,16.33c.4,0,.73.33.73.73s-.33.73-.73.73-.73-.33-.73-.73.33-.73.73-.73Z"/>
      <path class="cls-5" d="M22.65,16.33c.4,0,.73.33.73.73s-.33.73-.73.73-.73-.33-.73-.73.33-.73.73-.73Z"/>
      <path class="cls-5" d="M24.07,16.33c.4,0,.73.33.73.73s-.33.73-.73.73-.73-.33-.73-.73.33-.73.73-.73Z"/>
      <path class="cls-5" d="M25.48,16.33c.4,0,.73.33.73.73s-.33.73-.73.73-.73-.33-.73-.73.33-.73.73-.73Z"/>
      <path class="cls-5" d="M26.89,16.33c.4,0,.73.33.73.73s-.33.73-.73.73-.73-.33-.73-.73.33-.73.73-.73Z"/>
      <path class="cls-5" d="M31.13,16.33c.4,0,.73.33.73.73s-.33.73-.73.73-.73-.33-.73-.73.33-.73.73-.73Z"/>
      <path class="cls-5" d="M35.37,16.33c.4,0,.73.33.73.73s-.33.73-.73.73-.73-.33-.73-.73.33-.73.73-.73Z"/>
      <path class="cls-5" d="M36.79,16.33c.4,0,.73.33.73.73s-.33.73-.73.73-.73-.33-.73-.73.33-.73.73-.73Z"/>
      <path class="cls-5" d="M38.2,16.33c.4,0,.73.33.73.73s-.33.73-.73.73-.73-.33-.73-.73.33-.73.73-.73Z"/>
      <path class="cls-5" d="M42.44,16.33c.4,0,.73.33.73.73s-.33.73-.73.73-.73-.33-.73-.73.33-.73.73-.73Z"/>
      <path class="cls-5" d="M43.85,16.33c.4,0,.73.33.73.73s-.33.73-.73.73-.73-.33-.73-.73.33-.73.73-.73Z"/>
      <path class="cls-5" d="M45.27,16.33c.4,0,.73.33.73.73s-.33.73-.73.73-.73-.33-.73-.73.33-.73.73-.73Z"/>
      <path class="cls-5" d="M7.11,17.74c.4,0,.73.33.73.73s-.33.73-.73.73-.73-.33-.73-.73.33-.73.73-.73Z"/>
      <path class="cls-5" d="M9.93,17.74c.4,0,.73.33.73.73s-.33.73-.73.73-.73-.33-.73-.73.33-.73.73-.73Z"/>
      <path class="cls-5" d="M17,17.74c.4,0,.73.33.73.73s-.33.73-.73.73-.73-.33-.73-.73.33-.73.73-.73Z"/>
      <path class="cls-5" d="M18.41,17.74c.4,0,.73.33.73.73s-.33.73-.73.73-.73-.33-.73-.73.33-.73.73-.73Z"/>
      <path class="cls-5" d="M19.83,17.74c.4,0,.73.33.73.73s-.33.73-.73.73-.73-.33-.73-.73.33-.73.73-.73Z"/>
      <path class="cls-5" d="M25.48,17.74c.4,0,.73.33.73.73s-.33.73-.73.73-.73-.33-.73-.73.33-.73.73-.73Z"/>
      <path class="cls-5" d="M29.72,17.74c.4,0,.73.33.73.73s-.33.73-.73.73-.73-.33-.73-.73.33-.73.73-.73Z"/>
      <path class="cls-5" d="M38.2,17.74c.4,0,.73.33.73.73s-.33.73-.73.73-.73-.33-.73-.73.33-.73.73-.73Z"/>
      <path class="cls-5" d="M39.61,17.74c.4,0,.73.33.73.73s-.33.73-.73.73-.73-.33-.73-.73.33-.73.73-.73Z"/>
      <path class="cls-5" d="M41.03,17.74c.4,0,.73.33.73.73s-.33.73-.73.73-.73-.33-.73-.73.33-.73.73-.73Z"/>
      <path class="cls-5" d="M42.44,17.74c.4,0,.73.33.73.73s-.33.73-.73.73-.73-.33-.73-.73.33-.73.73-.73Z"/>
      <path class="cls-5" d="M45.27,17.74c.4,0,.73.33.73.73s-.33.73-.73.73-.73-.33-.73-.73.33-.73.73-.73Z"/>
      <circle class="cls-5" cx="7.11" cy="19.88" r=".73"/>
      <path class="cls-5" d="M11.35,19.16c.4,0,.73.33.73.73s-.33.73-.73.73-.73-.33-.73-.73.33-.73.73-.73Z"/>
      <path class="cls-5" d="M12.76,19.16c.4,0,.73.33.73.73s-.33.73-.73.73-.73-.33-.73-.73.33-.73.73-.73Z"/>
      <circle class="cls-5" cx="14.17" cy="19.88" r=".73"/>
      <path class="cls-5" d="M35.37,19.16c.4,0,.73.33.73.73s-.33.73-.73.73-.73-.33-.73-.73.33-.73.73-.73Z"/>
      <circle class="cls-5" cx="36.79" cy="19.88" r=".73"/>
      <path class="cls-5" d="M38.2,19.16c.4,0,.73.33.73.73s-.33.73-.73.73-.73-.33-.73-.73.33-.73.73-.73Z"/>
      <path class="cls-5" d="M39.61,19.16c.4,0,.73.33.73.73s-.33.73-.73.73-.73-.33-.73-.73.33-.73.73-.73Z"/>
      <path class="cls-5" d="M42.44,19.16c.4,0,.73.33.73.73s-.33.73-.73.73-.73-.33-.73-.73.33-.73.73-.73Z"/>
      <path class="cls-5" d="M18.41,20.57c.4,0,.73.33.73.73s-.33.73-.73.73-.73-.33-.73-.73.33-.73.73-.73Z"/>
      <path class="cls-5" d="M32.55,20.57c.4,0,.73.33.73.73s-.33.73-.73.73-.73-.33-.73-.73.33-.73.73-.73Z"/>
      <path class="cls-5" d="M35.37,20.57c.4,0,.73.33.73.73s-.33.73-.73.73-.73-.33-.73-.73.33-.73.73-.73Z"/>
      <path class="cls-5" d="M36.79,20.57c.4,0,.73.33.73.73s-.33.73-.73.73-.73-.33-.73-.73.33-.73.73-.73Z"/>
      <path class="cls-5" d="M38.2,20.57c.4,0,.73.33.73.73s-.33.73-.73.73-.73-.33-.73-.73.33-.73.73-.73Z"/>
      <path class="cls-5" d="M39.61,20.57c.4,0,.73.33.73.73s-.33.73-.73.73-.73-.33-.73-.73.33-.73.73-.73Z"/>
      <path class="cls-5" d="M41.03,20.57c.4,0,.73.33.73.73s-.33.73-.73.73-.73-.33-.73-.73.33-.73.73-.73Z"/>
      <path class="cls-5" d="M43.85,20.57c.4,0,.73.33.73.73s-.33.73-.73.73-.73-.33-.73-.73.33-.73.73-.73Z"/>
      <circle class="cls-5" cx="7.11" cy="22.71" r=".73"/>
      <path class="cls-5" d="M8.52,21.98c.4,0,.73.33.73.73s-.33.73-.73.73-.73-.33-.73-.73.33-.73.73-.73Z"/>
      <circle class="cls-5" cx="9.93" cy="22.71" r=".73"/>
      <path class="cls-5" d="M11.35,21.98c.4,0,.73.33.73.73s-.33.73-.73.73-.73-.33-.73-.73.33-.73.73-.73Z"/>
      <path class="cls-5" d="M12.76,21.98c.4,0,.73.33.73.73s-.33.73-.73.73-.73-.33-.73-.73.33-.73.73-.73Z"/>
      <circle class="cls-5" cx="14.17" cy="22.71" r=".73"/>
      <path class="cls-5" d="M15.59,21.98c.4,0,.73.33.73.73s-.33.73-.73.73-.73-.33-.73-.73.33-.73.73-.73Z"/>
      <path class="cls-5" d="M17,21.98c.4,0,.73.33.73.73s-.33.73-.73.73-.73-.33-.73-.73.33-.73.73-.73Z"/>
      <path class="cls-5" d="M33.96,21.98c.4,0,.73.33.73.73s-.33.73-.73.73-.73-.33-.73-.73.33-.73.73-.73Z"/>
      <path class="cls-5" d="M35.37,21.98c.4,0,.73.33.73.73s-.33.73-.73.73-.73-.33-.73-.73.33-.73.73-.73Z"/>
      <path class="cls-5" d="M38.2,21.98c.4,0,.73.33.73.73s-.33.73-.73.73-.73-.33-.73-.73.33-.73.73-.73Z"/>
      <path class="cls-5" d="M42.44,21.98c.4,0,.73.33.73.73s-.33.73-.73.73-.73-.33-.73-.73.33-.73.73-.73Z"/>
      <circle class="cls-5" cx="43.85" cy="22.71" r=".73"/>
      <path class="cls-5" d="M45.27,21.98c.4,0,.73.33.73.73s-.33.73-.73.73-.73-.33-.73-.73.33-.73.73-.73Z"/>
      <path class="cls-5" d="M8.52,23.4c.4,0,.73.33.73.73s-.33.73-.73.73-.73-.33-.73-.73.33-.73.73-.73Z"/>
      <path class="cls-5" d="M9.93,23.4c.4,0,.73.33.73.73s-.33.73-.73.73-.73-.33-.73-.73.33-.73.73-.73Z"/>
      <path class="cls-5" d="M12.76,23.4c.4,0,.73.33.73.73s-.33.73-.73.73-.73-.33-.73-.73.33-.73.73-.73Z"/>
      <path class="cls-5" d="M15.59,23.4c.4,0,.73.33.73.73s-.33.73-.73.73-.73-.33-.73-.73.33-.73.73-.73Z"/>
      <path class="cls-5" d="M32.55,23.4c.4,0,.73.33.73.73s-.33.73-.73.73-.73-.33-.73-.73.33-.73.73-.73Z"/>
      <path class="cls-5" d="M33.96,23.4c.4,0,.73.33.73.73s-.33.73-.73.73-.73-.33-.73-.73.33-.73.73-.73Z"/>
      <path class="cls-5" d="M35.37,23.4c.4,0,.73.33.73.73s-.33.73-.73.73-.73-.33-.73-.73.33-.73.73-.73Z"/>
      <path class="cls-5" d="M36.79,23.4c.4,0,.73.33.73.73s-.33.73-.73.73-.73-.33-.73-.73.33-.73.73-.73Z"/>
      <path class="cls-5" d="M39.61,23.4c.4,0,.73.33.73.73s-.33.73-.73.73-.73-.33-.73-.73.33-.73.73-.73Z"/>
      <path class="cls-5" d="M41.03,23.4c.4,0,.73.33.73.73s-.33.73-.73.73-.73-.33-.73-.73.33-.73.73-.73Z"/>
      <path class="cls-5" d="M43.85,23.4c.4,0,.73.33.73.73s-.33.73-.73.73-.73-.33-.73-.73.33-.73.73-.73Z"/>
      <path class="cls-5" d="M45.27,23.4c.4,0,.73.33.73.73s-.33.73-.73.73-.73-.33-.73-.73.33-.73.73-.73Z"/>
      <path class="cls-5" d="M11.35,24.81c.4,0,.73.33.73.73s-.33.73-.73.73-.73-.33-.73-.73.33-.73.73-.73Z"/>
      <path class="cls-5" d="M12.76,24.81c.4,0,.73.33.73.73s-.33.73-.73.73-.73-.33-.73-.73.33-.73.73-.73Z"/>
      <path class="cls-5" d="M14.17,24.81c.4,0,.73.33.73.73s-.33.73-.73.73-.73-.33-.73-.73.33-.73.73-.73Z"/>
      <path class="cls-5" d="M17,24.81c.4,0,.73.33.73.73s-.33.73-.73.73-.73-.33-.73-.73.33-.73.73-.73Z"/>
      <path class="cls-5" d="M18.41,24.81c.4,0,.73.33.73.73s-.33.73-.73.73-.73-.33-.73-.73.33-.73.73-.73Z"/>
      <path class="cls-5" d="M33.96,24.81c.4,0,.73.33.73.73s-.33.73-.73.73-.73-.33-.73-.73.33-.73.73-.73Z"/>
      <path class="cls-5" d="M35.37,24.81c.4,0,.73.33.73.73s-.33.73-.73.73-.73-.33-.73-.73.33-.73.73-.73Z"/>
      <path class="cls-5" d="M36.79,24.81c.4,0,.73.33.73.73s-.33.73-.73.73-.73-.33-.73-.73.33-.73.73-.73Z"/>
      <path class="cls-5" d="M38.2,24.81c.4,0,.73.33.73.73s-.33.73-.73.73-.73-.33-.73-.73.33-.73.73-.73Z"/>
      <circle class="cls-5" cx="7.11" cy="26.95" r=".73"/>
      <path class="cls-5" d="M8.52,26.22c.4,0,.73.33.73.73s-.33.73-.73.73-.73-.33-.73-.73.33-.73.73-.73Z"/>
      <path class="cls-5" d="M15.59,26.22c.4,0,.73.33.73.73s-.33.73-.73.73-.73-.33-.73-.73.33-.73.73-.73Z"/>
      <path class="cls-5" d="M17,26.22c.4,0,.73.33.73.73s-.33.73-.73.73-.73-.33-.73-.73.33-.73.73-.73Z"/>
      <circle class="cls-5" cx="18.41" cy="26.95" r=".73"/>
      <path class="cls-5" d="M35.37,26.22c.4,0,.73.33.73.73s-.33.73-.73.73-.73-.33-.73-.73.33-.73.73-.73Z"/>
      <path class="cls-5" d="M39.61,26.22c.4,0,.73.33.73.73s-.33.73-.73.73-.73-.33-.73-.73.33-.73.73-.73Z"/>
      <circle class="cls-5" cx="41.03" cy="26.95" r=".73"/>
      <path class="cls-5" d="M8.52,27.64c.4,0,.73.33.73.73s-.33.73-.73.73-.73-.33-.73-.73.33-.73.73-.73Z"/>
      <path class="cls-5" d="M9.93,27.64c.4,0,.73.33.73.73s-.33.73-.73.73-.73-.33-.73-.73.33-.73.73-.73Z"/>
      <path class="cls-5" d="M11.35,27.64c.4,0,.73.33.73.73s-.33.73-.73.73-.73-.33-.73-.73.33-.73.73-.73Z"/>
      <path class="cls-5" d="M12.76,27.64c.4,0,.73.33.73.73s-.33.73-.73.73-.73-.33-.73-.73.33-.73.73-.73Z"/>
      <path class="cls-5" d="M14.17,27.64c.4,0,.73.33.73.73s-.33.73-.73.73-.73-.33-.73-.73.33-.73.73-.73Z"/>
      <path class="cls-5" d="M15.59,27.64c.4,0,.73.33.73.73s-.33.73-.73.73-.73-.33-.73-.73.33-.73.73-.73Z"/>
      <path class="cls-5" d="M18.41,27.64c.4,0,.73.33.73.73s-.33.73-.73.73-.73-.33-.73-.73.33-.73.73-.73Z"/>
      <path class="cls-5" d="M38.2,27.64c.4,0,.73.33.73.73s-.33.73-.73.73-.73-.33-.73-.73.33-.73.73-.73Z"/>
      <path class="cls-5" d="M41.03,27.64c.4,0,.73.33.73.73s-.33.73-.73.73-.73-.33-.73-.73.33-.73.73-.73Z"/>
      <path class="cls-5" d="M42.44,27.64c.4,0,.73.33.73.73s-.33.73-.73.73-.73-.33-.73-.73.33-.73.73-.73Z"/>
      <path class="cls-5" d="M43.85,27.64c.4,0,.73.33.73.73s-.33.73-.73.73-.73-.33-.73-.73.33-.73.73-.73Z"/>
      <path class="cls-5" d="M45.27,27.64c.4,0,.73.33.73.73s-.33.73-.73.73-.73-.33-.73-.73.33-.73.73-.73Z"/>
      <path class="cls-5" d="M5.69,29.05c.4,0,.73.33.73.73s-.33.73-.73.73-.73-.33-.73-.73.33-.73.73-.73Z"/>
      <path class="cls-5" d="M7.11,29.05c.4,0,.73.33.73.73s-.33.73-.73.73-.73-.33-.73-.73.33-.73.73-.73Z"/>
      <path class="cls-5" d="M8.52,29.05c.4,0,.73.33.73.73s-.33.73-.73.73-.73-.33-.73-.73.33-.73.73-.73Z"/>
      <path class="cls-5" d="M9.93,29.05c.4,0,.73.33.73.73s-.33.73-.73.73-.73-.33-.73-.73.33-.73.73-.73Z"/>
      <path class="cls-5" d="M11.35,29.05c.4,0,.73.33.73.73s-.33.73-.73.73-.73-.33-.73-.73.33-.73.73-.73Z"/>
      <path class="cls-5" d="M15.59,29.05c.4,0,.73.33.73.73s-.33.73-.73.73-.73-.33-.73-.73.33-.73.73-.73Z"/>
      <path class="cls-5" d="M17,29.05c.4,0,.73.33.73.73s-.33.73-.73.73-.73-.33-.73-.73.33-.73.73-.73Z"/>
      <path class="cls-5" d="M33.96,29.05c.4,0,.73.33.73.73s-.33.73-.73.73-.73-.33-.73-.73.33-.73.73-.73Z"/>
      <path class="cls-5" d="M38.2,29.05c.4,0,.73.33.73.73s-.33.73-.73.73-.73-.33-.73-.73.33-.73.73-.73Z"/>
      <path class="cls-5" d="M39.61,29.05c.4,0,.73.33.73.73s-.33.73-.73.73-.73-.33-.73-.73.33-.73.73-.73Z"/>
      <path class="cls-5" d="M42.44,29.05c.4,0,.73.33.73.73s-.33.73-.73.73-.73-.33-.73-.73.33-.73.73-.73Z"/>
      <path class="cls-5" d="M43.85,29.05c.4,0,.73.33.73.73s-.33.73-.73.73-.73-.33-.73-.73.33-.73.73-.73Z"/>
      <path class="cls-5" d="M45.27,29.05c.4,0,.73.33.73.73s-.33.73-.73.73-.73-.33-.73-.73.33-.73.73-.73Z"/>
      <path class="cls-5" d="M5.69,30.46c.4,0,.73.33.73.73s-.33.73-.73.73-.73-.33-.73-.73.33-.73.73-.73Z"/>
      <circle class="cls-5" cx="9.93" cy="31.19" r=".73"/>
      <path class="cls-5" d="M11.35,30.46c.4,0,.73.33.73.73s-.33.73-.73.73-.73-.33-.73-.73.33-.73.73-.73Z"/>
      <path class="cls-5" d="M12.76,30.46c.4,0,.73.33.73.73s-.33.73-.73.73-.73-.33-.73-.73.33-.73.73-.73Z"/>
      <circle class="cls-5" cx="14.17" cy="31.19" r=".73"/>
      <path class="cls-5" d="M15.59,30.46c.4,0,.73.33.73.73s-.33.73-.73.73-.73-.33-.73-.73.33-.73.73-.73Z"/>
      <path class="cls-5" d="M17,30.46c.4,0,.73.33.73.73s-.33.73-.73.73-.73-.33-.73-.73.33-.73.73-.73Z"/>
      <circle class="cls-5" cx="18.41" cy="31.19" r=".73"/>
      <circle class="cls-5" cx="36.79" cy="31.19" r=".73"/>
      <path class="cls-5" d="M38.2,30.46c.4,0,.73.33.73.73s-.33.73-.73.73-.73-.33-.73-.73.33-.73.73-.73Z"/>
      <circle class="cls-5" cx="41.03" cy="31.19" r=".73"/>
      <path class="cls-5" d="M42.44,30.46c.4,0,.73.33.73.73s-.33.73-.73.73-.73-.33-.73-.73.33-.73.73-.73Z"/>
      <path class="cls-5" d="M5.69,31.88c.4,0,.73.33.73.73s-.33.73-.73.73-.73-.33-.73-.73.33-.73.73-.73Z"/>
      <path class="cls-5" d="M9.93,31.88c.4,0,.73.33.73.73s-.33.73-.73.73-.73-.33-.73-.73.33-.73.73-.73Z"/>
      <path class="cls-5" d="M11.35,31.88c.4,0,.73.33.73.73s-.33.73-.73.73-.73-.33-.73-.73.33-.73.73-.73Z"/>
      <path class="cls-5" d="M15.59,31.88c.4,0,.73.33.73.73s-.33.73-.73.73-.73-.33-.73-.73.33-.73.73-.73Z"/>
      <path class="cls-5" d="M17,31.88c.4,0,.73.33.73.73s-.33.73-.73.73-.73-.33-.73-.73.33-.73.73-.73Z"/>
      <path class="cls-5" d="M19.83,31.88c.4,0,.73.33.73.73s-.33.73-.73.73-.73-.33-.73-.73.33-.73.73-.73Z"/>
      <path class="cls-5" d="M21.24,31.88c.4,0,.73.33.73.73s-.33.73-.73.73-.73-.33-.73-.73.33-.73.73-.73Z"/>
      <path class="cls-5" d="M22.65,31.88c.4,0,.73.33.73.73s-.33.73-.73.73-.73-.33-.73-.73.33-.73.73-.73Z"/>
      <path class="cls-5" d="M24.07,31.88c.4,0,.73.33.73.73s-.33.73-.73.73-.73-.33-.73-.73.33-.73.73-.73Z"/>
      <path class="cls-5" d="M25.48,31.88c.4,0,.73.33.73.73s-.33.73-.73.73-.73-.33-.73-.73.33-.73.73-.73Z"/>
      <path class="cls-5" d="M28.31,31.88c.4,0,.73.33.73.73s-.33.73-.73.73-.73-.33-.73-.73.33-.73.73-.73Z"/>
      <path class="cls-5" d="M36.79,31.88c.4,0,.73.33.73.73s-.33.73-.73.73-.73-.33-.73-.73.33-.73.73-.73Z"/>
      <path class="cls-5" d="M39.61,31.88c.4,0,.73.33.73.73s-.33.73-.73.73-.73-.33-.73-.73.33-.73.73-.73Z"/>
      <path class="cls-5" d="M43.85,31.88c.4,0,.73.33.73.73s-.33.73-.73.73-.73-.33-.73-.73.33-.73.73-.73Z"/>
      <path class="cls-5" d="M45.27,31.88c.4,0,.73.33.73.73s-.33.73-.73.73-.73-.33-.73-.73.33-.73.73-.73Z"/>
      <path class="cls-5" d="M5.69,33.29c.4,0,.73.33.73.73s-.33.73-.73.73-.73-.33-.73-.73.33-.73.73-.73Z"/>
      <circle class="cls-5" cx="9.93" cy="34.02" r=".73"/>
      <path class="cls-5" d="M12.76,33.29c.4,0,.73.33.73.73s-.33.73-.73.73-.73-.33-.73-.73.33-.73.73-.73Z"/>
      <circle class="cls-5" cx="14.17" cy="34.02" r=".73"/>
      <path class="cls-5" d="M17,33.29c.4,0,.73.33.73.73s-.33.73-.73.73-.73-.33-.73-.73.33-.73.73-.73Z"/>
      <circle class="cls-5" cx="21.24" cy="34.02" r=".73"/>
      <path class="cls-5" d="M22.65,33.29c.4,0,.73.33.73.73s-.33.73-.73.73-.73-.33-.73-.73.33-.73.73-.73Z"/>
      <circle class="cls-5" cx="25.48" cy="34.02" r=".73"/>
      <path class="cls-5" d="M28.31,33.29c.4,0,.73.33.73.73s-.33.73-.73.73-.73-.33-.73-.73.33-.73.73-.73Z"/>
      <path class="cls-5" d="M33.96,33.29c.4,0,.73.33.73.73s-.33.73-.73.73-.73-.33-.73-.73.33-.73.73-.73Z"/>
      <path class="cls-5" d="M35.37,33.29c.4,0,.73.33.73.73s-.33.73-.73.73-.73-.33-.73-.73.33-.73.73-.73Z"/>
      <circle class="cls-5" cx="36.79" cy="34.02" r=".73"/>
      <path class="cls-5" d="M38.2,33.29c.4,0,.73.33.73.73s-.33.73-.73.73-.73-.33-.73-.73.33-.73.73-.73Z"/>
      <path class="cls-5" d="M39.61,33.29c.4,0,.73.33.73.73s-.33.73-.73.73-.73-.33-.73-.73.33-.73.73-.73Z"/>
      <path class="cls-5" d="M42.44,33.29c.4,0,.73.33.73.73s-.33.73-.73.73-.73-.33-.73-.73.33-.73.73-.73Z"/>
      <path class="cls-5" d="M17,34.7c.4,0,.73.33.73.73s-.33.73-.73.73-.73-.33-.73-.73.33-.73.73-.73Z"/>
      <path class="cls-5" d="M19.83,34.7c.4,0,.73.33.73.73s-.33.73-.73.73-.73-.33-.73-.73.33-.73.73-.73Z"/>
      <path class="cls-5" d="M21.24,34.7c.4,0,.73.33.73.73s-.33.73-.73.73-.73-.33-.73-.73.33-.73.73-.73Z"/>
      <path class="cls-5" d="M22.65,34.7c.4,0,.73.33.73.73s-.33.73-.73.73-.73-.33-.73-.73.33-.73.73-.73Z"/>
      <path class="cls-5" d="M24.07,34.7c.4,0,.73.33.73.73s-.33.73-.73.73-.73-.33-.73-.73.33-.73.73-.73Z"/>
      <path class="cls-5" d="M25.48,34.7c.4,0,.73.33.73.73s-.33.73-.73.73-.73-.33-.73-.73.33-.73.73-.73Z"/>
      <path class="cls-5" d="M26.89,34.7c.4,0,.73.33.73.73s-.33.73-.73.73-.73-.33-.73-.73.33-.73.73-.73Z"/>
      <path class="cls-5" d="M29.72,34.7c.4,0,.73.33.73.73s-.33.73-.73.73-.73-.33-.73-.73.33-.73.73-.73Z"/>
      <path class="cls-5" d="M31.13,34.7c.4,0,.73.33.73.73s-.33.73-.73.73-.73-.33-.73-.73.33-.73.73-.73Z"/>
      <path class="cls-5" d="M32.55,34.7c.4,0,.73.33.73.73s-.33.73-.73.73-.73-.33-.73-.73.33-.73.73-.73Z"/>
      <path class="cls-5" d="M33.96,34.7c.4,0,.73.33.73.73s-.33.73-.73.73-.73-.33-.73-.73.33-.73.73-.73Z"/>
      <path class="cls-5" d="M39.61,34.7c.4,0,.73.33.73.73s-.33.73-.73.73-.73-.33-.73-.73.33-.73.73-.73Z"/>
      <path class="cls-5" d="M41.03,34.7c.4,0,.73.33.73.73s-.33.73-.73.73-.73-.33-.73-.73.33-.73.73-.73Z"/>
      <path class="cls-5" d="M43.85,34.7c.4,0,.73.33.73.73s-.33.73-.73.73-.73-.33-.73-.73.33-.73.73-.73Z"/>
      <path class="cls-5" d="M45.27,34.7c.4,0,.73.33.73.73s-.33.73-.73.73-.73-.33-.73-.73.33-.73.73-.73Z"/>
      <path class="cls-5" d="M21.24,36.12c.4,0,.73.33.73.73s-.33.73-.73.73-.73-.33-.73-.73.33-.73.73-.73Z"/>
      <path class="cls-5" d="M25.48,36.12c.4,0,.73.33.73.73s-.33.73-.73.73-.73-.33-.73-.73.33-.73.73-.73Z"/>
      <path class="cls-5" d="M26.89,36.12c.4,0,.73.33.73.73s-.33.73-.73.73-.73-.33-.73-.73.33-.73.73-.73Z"/>
      <path class="cls-5" d="M29.72,36.12c.4,0,.73.33.73.73s-.33.73-.73.73-.73-.33-.73-.73.33-.73.73-.73Z"/>
      <path class="cls-5" d="M31.13,36.12c.4,0,.73.33.73.73s-.33.73-.73.73-.73-.33-.73-.73.33-.73.73-.73Z"/>
      <path class="cls-5" d="M32.55,36.12c.4,0,.73.33.73.73s-.33.73-.73.73-.73-.33-.73-.73.33-.73.73-.73Z"/>
      <path class="cls-5" d="M33.96,36.12c.4,0,.73.33.73.73s-.33.73-.73.73-.73-.33-.73-.73.33-.73.73-.73Z"/>
      <path class="cls-5" d="M36.79,36.12c.4,0,.73.33.73.73s-.33.73-.73.73-.73-.33-.73-.73.33-.73.73-.73Z"/>
      <path class="cls-5" d="M39.61,36.12c.4,0,.73.33.73.73s-.33.73-.73.73-.73-.33-.73-.73.33-.73.73-.73Z"/>
      <path class="cls-5" d="M19.83,37.53c.4,0,.73.33.73.73s-.33.73-.73.73-.73-.33-.73-.73.33-.73.73-.73Z"/>
      <path class="cls-5" d="M26.89,37.53c.4,0,.73.33.73.73s-.33.73-.73.73-.73-.33-.73-.73.33-.73.73-.73Z"/>
      <circle class="cls-5" cx="29.72" cy="38.26" r=".73"/>
      <path class="cls-5" d="M31.13,37.53c.4,0,.73.33.73.73s-.33.73-.73.73-.73-.33-.73-.73.33-.73.73-.73Z"/>
      <circle class="cls-5" cx="32.55" cy="38.26" r=".73"/>
      <path class="cls-5" d="M33.96,37.53c.4,0,.73.33.73.73s-.33.73-.73.73-.73-.33-.73-.73.33-.73.73-.73Z"/>
      <path class="cls-5" d="M39.61,37.53c.4,0,.73.33.73.73s-.33.73-.73.73-.73-.33-.73-.73.33-.73.73-.73Z"/>
      <circle class="cls-5" cx="41.03" cy="38.26" r=".73"/>
      <circle class="cls-5" cx="43.85" cy="38.26" r=".73"/>
      <path class="cls-5" d="M17,38.94c.4,0,.73.33.73.73s-.33.73-.73.73-.73-.33-.73-.73.33-.73.73-.73Z"/>
      <path class="cls-5" d="M18.41,38.94c.4,0,.73.33.73.73s-.33.73-.73.73-.73-.33-.73-.73.33-.73.73-.73Z"/>
      <path class="cls-5" d="M22.65,38.94c.4,0,.73.33.73.73s-.33.73-.73.73-.73-.33-.73-.73.33-.73.73-.73Z"/>
      <path class="cls-5" d="M24.07,38.94c.4,0,.73.33.73.73s-.33.73-.73.73-.73-.33-.73-.73.33-.73.73-.73Z"/>
      <path class="cls-5" d="M26.89,38.94c.4,0,.73.33.73.73s-.33.73-.73.73-.73-.33-.73-.73.33-.73.73-.73Z"/>
      <path class="cls-5" d="M28.31,38.94c.4,0,.73.33.73.73s-.33.73-.73.73-.73-.33-.73-.73.33-.73.73-.73Z"/>
      <path class="cls-5" d="M33.96,38.94c.4,0,.73.33.73.73s-.33.73-.73.73-.73-.33-.73-.73.33-.73.73-.73Z"/>
      <path class="cls-5" d="M35.37,38.94c.4,0,.73.33.73.73s-.33.73-.73.73-.73-.33-.73-.73.33-.73.73-.73Z"/>
      <path class="cls-5" d="M36.79,38.94c.4,0,.73.33.73.73s-.33.73-.73.73-.73-.33-.73-.73.33-.73.73-.73Z"/>
      <path class="cls-5" d="M38.2,38.94c.4,0,.73.33.73.73s-.33.73-.73.73-.73-.33-.73-.73.33-.73.73-.73Z"/>
      <path class="cls-5" d="M39.61,38.94c.4,0,.73.33.73.73s-.33.73-.73.73-.73-.33-.73-.73.33-.73.73-.73Z"/>
      <path class="cls-5" d="M41.03,38.94c.4,0,.73.33.73.73s-.33.73-.73.73-.73-.33-.73-.73.33-.73.73-.73Z"/>
      <path class="cls-5" d="M42.44,38.94c.4,0,.73.33.73.73s-.33.73-.73.73-.73-.33-.73-.73.33-.73.73-.73Z"/>
      <path class="cls-5" d="M45.27,38.94c.4,0,.73.33.73.73s-.33.73-.73.73-.73-.33-.73-.73.33-.73.73-.73Z"/>
      <path class="cls-5" d="M17,40.36c.4,0,.73.33.73.73s-.33.73-.73.73-.73-.33-.73-.73.33-.73.73-.73Z"/>
      <path class="cls-5" d="M18.41,40.36c.4,0,.73.33.73.73s-.33.73-.73.73-.73-.33-.73-.73.33-.73.73-.73Z"/>
      <path class="cls-5" d="M21.24,40.36c.4,0,.73.33.73.73s-.33.73-.73.73-.73-.33-.73-.73.33-.73.73-.73Z"/>
      <path class="cls-5" d="M26.89,40.36c.4,0,.73.33.73.73s-.33.73-.73.73-.73-.33-.73-.73.33-.73.73-.73Z"/>
      <path class="cls-5" d="M28.31,40.36c.4,0,.73.33.73.73s-.33.73-.73.73-.73-.33-.73-.73.33-.73.73-.73Z"/>
      <path class="cls-5" d="M32.55,40.36c.4,0,.73.33.73.73s-.33.73-.73.73-.73-.33-.73-.73.33-.73.73-.73Z"/>
      <path class="cls-5" d="M33.96,40.36c.4,0,.73.33.73.73s-.33.73-.73.73-.73-.33-.73-.73.33-.73.73-.73Z"/>
      <path class="cls-5" d="M35.37,40.36c.4,0,.73.33.73.73s-.33.73-.73.73-.73-.33-.73-.73.33-.73.73-.73Z"/>
      <path class="cls-5" d="M38.2,40.36c.4,0,.73.33.73.73s-.33.73-.73.73-.73-.33-.73-.73.33-.73.73-.73Z"/>
      <path class="cls-5" d="M41.03,40.36c.4,0,.73.33.73.73s-.33.73-.73.73-.73-.33-.73-.73.33-.73.73-.73Z"/>
      <path class="cls-5" d="M42.44,40.36c.4,0,.73.33.73.73s-.33.73-.73.73-.73-.33-.73-.73.33-.73.73-.73Z"/>
      <path class="cls-5" d="M17,41.77c.4,0,.73.33.73.73s-.33.73-.73.73-.73-.33-.73-.73.33-.73.73-.73Z"/>
      <circle class="cls-5" cx="18.41" cy="42.5" r=".73"/>
      <path class="cls-5" d="M22.65,41.77c.4,0,.73.33.73.73s-.33.73-.73.73-.73-.33-.73-.73.33-.73.73-.73Z"/>
      <circle class="cls-5" cx="25.48" cy="42.5" r=".73"/>
      <path class="cls-5" d="M26.89,41.77c.4,0,.73.33.73.73s-.33.73-.73.73-.73-.33-.73-.73.33-.73.73-.73Z"/>
      <path class="cls-5" d="M28.31,41.77c.4,0,.73.33.73.73s-.33.73-.73.73-.73-.33-.73-.73.33-.73.73-.73Z"/>
      <path class="cls-5" d="M31.13,41.77c.4,0,.73.33.73.73s-.33.73-.73.73-.73-.33-.73-.73.33-.73.73-.73Z"/>
      <circle class="cls-5" cx="32.55" cy="42.5" r=".73"/>
      <path class="cls-5" d="M33.96,41.77c.4,0,.73.33.73.73s-.33.73-.73.73-.73-.33-.73-.73.33-.73.73-.73Z"/>
      <path class="cls-5" d="M35.37,41.77c.4,0,.73.33.73.73s-.33.73-.73.73-.73-.33-.73-.73.33-.73.73-.73Z"/>
      <circle class="cls-5" cx="36.79" cy="42.5" r=".73"/>
      <path class="cls-5" d="M38.2,41.77c.4,0,.73.33.73.73s-.33.73-.73.73-.73-.33-.73-.73.33-.73.73-.73Z"/>
      <path class="cls-5" d="M39.61,41.77c.4,0,.73.33.73.73s-.33.73-.73.73-.73-.33-.73-.73.33-.73.73-.73Z"/>
      <circle class="cls-5" cx="41.03" cy="42.5" r=".73"/>
      <path class="cls-5" d="M42.44,41.77c.4,0,.73.33.73.73s-.33.73-.73.73-.73-.33-.73-.73.33-.73.73-.73Z"/>
      <circle class="cls-5" cx="43.85" cy="42.5" r=".73"/>
      <path class="cls-5" d="M19.83,43.18c.4,0,.73.33.73.73s-.33.73-.73.73-.73-.33-.73-.73.33-.73.73-.73Z"/>
      <path class="cls-5" d="M24.07,43.18c.4,0,.73.33.73.73s-.33.73-.73.73-.73-.33-.73-.73.33-.73.73-.73Z"/>
      <path class="cls-5" d="M25.48,43.18c.4,0,.73.33.73.73s-.33.73-.73.73-.73-.33-.73-.73.33-.73.73-.73Z"/>
      <path class="cls-5" d="M26.89,43.18c.4,0,.73.33.73.73s-.33.73-.73.73-.73-.33-.73-.73.33-.73.73-.73Z"/>
      <path class="cls-5" d="M32.55,43.18c.4,0,.73.33.73.73s-.33.73-.73.73-.73-.33-.73-.73.33-.73.73-.73Z"/>
      <path class="cls-5" d="M39.61,43.18c.4,0,.73.33.73.73s-.33.73-.73.73-.73-.33-.73-.73.33-.73.73-.73Z"/>
      <path class="cls-5" d="M41.03,43.18c.4,0,.73.33.73.73s-.33.73-.73.73-.73-.33-.73-.73.33-.73.73-.73Z"/>
      <path class="cls-5" d="M43.85,43.18c.4,0,.73.33.73.73s-.33.73-.73.73-.73-.33-.73-.73.33-.73.73-.73Z"/>
      <path class="cls-5" d="M19.83,44.6c.4,0,.73.33.73.73s-.33.73-.73.73-.73-.33-.73-.73.33-.73.73-.73Z"/>
      <circle class="cls-5" cx="21.24" cy="45.32" r=".73"/>
      <path class="cls-5" d="M26.89,44.6c.4,0,.73.33.73.73s-.33.73-.73.73-.73-.33-.73-.73.33-.73.73-.73Z"/>
      <path class="cls-5" d="M28.31,44.6c.4,0,.73.33.73.73s-.33.73-.73.73-.73-.33-.73-.73.33-.73.73-.73Z"/>
      <circle class="cls-5" cx="29.72" cy="45.32" r=".73"/>
      <circle class="cls-5" cx="32.55" cy="45.32" r=".73"/>
      <path class="cls-5" d="M39.61,44.6c.4,0,.73.33.73.73s-.33.73-.73.73-.73-.33-.73-.73.33-.73.73-.73Z"/>
      <circle class="cls-5" cx="41.03" cy="45.32" r=".73"/>
      <path class="cls-5" d="M42.44,44.6c.4,0,.73.33.73.73s-.33.73-.73.73-.73-.33-.73-.73.33-.73.73-.73Z"/>
    </g>
    <g>
      <path class="cls-3" d="M4.97,5.02v6.78c0,1.7,1.41,3.11,3.11,3.11h3.6c1.77,0,3.18-1.41,3.18-3.11v-3.67c0-1.7-1.41-3.11-3.11-3.11h-6.78ZM11.47,13.5h-3.11c-1.06,0-1.98-.92-1.98-1.98v-5.09h5.09c1.06,0,1.98.92,1.98,1.98v3.11c0,1.06-.92,1.98-1.98,1.98Z"/>
      <path class="cls-3" d="M45.95,5.02h-6.78c-1.7,0-3.11,1.41-3.11,3.11v3.6c0,1.77,1.41,3.18,3.11,3.18h3.67c1.7,0,3.11-1.41,3.11-3.11v-6.78ZM37.47,11.53v-3.11c0-1.06.92-1.98,1.98-1.98h5.09v5.09c0,1.06-.92,1.98-1.98,1.98h-3.11c-1.06,0-1.98-.92-1.98-1.98Z"/>
      <path class="cls-3" d="M4.97,46.01h6.78c1.7,0,3.11-1.41,3.11-3.11v-3.6c0-1.77-1.41-3.18-3.11-3.18h-3.67c-1.7,0-3.11,1.41-3.11,3.11v6.78ZM13.45,39.51v3.11c0,1.06-.92,1.98-1.98,1.98h-5.09v-5.09c0-1.06.92-1.98,1.98-1.98h3.11c1.06,0,1.98.92,1.98,1.98Z"/>
      <path class="cls-5" d="M12.03,12.09h-2.12c-1.2,0-2.12-.92-2.12-2.12v-2.12h2.12c1.2,0,2.12.92,2.12,2.12v2.12Z"/>
      <path class="cls-5" d="M38.89,12.09v-2.12c0-1.2.92-2.12,2.12-2.12h2.12v2.12c0,1.2-.92,2.12-2.12,2.12h-2.12Z"/>
      <path class="cls-5" d="M12.03,38.94v2.12c0,1.2-.92,2.12-2.12,2.12h-2.12v-2.12c0-1.2.92-2.12,2.12-2.12h2.12Z"/>
    </g>
    <g>
      <g>
        <polygon class="cls-2" points="24.25 26.11 24.25 23.01 24.25 23.01 25.52 20.86 25.55 20.87 25.55 26.11 25.52 26.11 25.52 20.92 24.27 23.02 24.27 26.11 24.25 26.11"/>
        <polygon class="cls-2" points="26.74 26.11 26.74 23.01 26.74 23.01 25.59 20.86 25.56 20.87 25.56 26.11 26.74 26.11"/>
        <polygon class="cls-2" points="22.85 26.11 22.85 24.24 22.85 24.24 23.62 22.95 23.64 22.95 23.64 26.11 23.62 26.11 23.62 22.98 22.87 24.24 22.87 26.11 22.85 26.11"/>
        <polygon class="cls-2" points="24.35 26.11 24.35 24.24 24.35 24.24 23.66 22.95 23.65 22.95 23.65 26.11 24.35 26.11"/>
        <polygon class="cls-2" points="26.56 26.11 26.56 24.24 26.56 24.24 27.33 22.95 27.35 22.95 27.35 26.11 27.33 26.11 27.33 22.98 26.58 24.24 26.58 26.11 26.56 26.11"/>
        <polygon class="cls-2" points="28.07 26.11 28.07 24.24 28.07 24.24 27.37 22.95 27.36 22.95 27.36 26.11 28.07 26.11"/>
      </g>
      <g>
        <path class="cls-2" d="M20.46,29.82h.16s.08-.03.08-.08c0-.06-.03-.08-.08-.08h-.16v.16h0ZM20.46,30.08h.18c.06,0,.1-.03.1-.09s-.04-.09-.1-.09h-.18v.18h0ZM20.35,29.58h.28c.1,0,.17.05.17.14,0,.06-.03.1-.08.12h0c.07.02.11.07.11.15,0,.09-.06.16-.21.16h-.26v-.58Z"/>
        <path class="cls-2" d="M21.02,29.58h.1v.34c0,.08,0,.17.14.17s.14-.09.14-.17v-.34h.1v.37c0,.15-.09.22-.24.22s-.24-.07-.24-.22v-.37Z"/>
        <rect class="cls-1" x="21.71" y="29.58" width=".1" height=".58"/>
        <polygon class="cls-2" points="22.03 29.58 22.13 29.58 22.13 30.07 22.43 30.07 22.43 30.16 22.03 30.16 22.03 29.58"/>
        <path class="cls-2" d="M22.7,30.08h.1c.16,0,.19-.09.19-.21s-.03-.21-.19-.21h-.1v.41h0ZM22.6,29.58h.24c.18,0,.25.13.25.29s-.08.29-.25.29h-.24v-.58Z"/>
        <rect class="cls-1" x="23.28" y="29.58" width=".1" height=".58"/>
        <polygon class="cls-2" points="23.6 29.58 23.71 29.58 23.97 30.01 23.97 30.01 23.97 29.58 24.07 29.58 24.07 30.16 23.96 30.16 23.7 29.73 23.7 29.73 23.7 30.16 23.6 30.16 23.6 29.58"/>
        <path class="cls-2" d="M24.79,30.16h-.06l-.02-.07c-.05.06-.1.08-.17.08-.17,0-.28-.14-.28-.3s.1-.3.28-.3c.13,0,.23.07.25.2h-.1c0-.08-.08-.11-.15-.11-.12,0-.18.11-.18.22s.05.22.18.22c.1,0,.16-.06.16-.16h-.15v-.08h.25v.3Z"/>
        <path class="cls-2" d="M25.39,29.97c0,.09.07.12.15.12.09,0,.12-.04.12-.09s-.02-.06-.05-.07c-.04-.02-.09-.03-.17-.05-.1-.03-.13-.09-.13-.15,0-.12.11-.17.21-.17.12,0,.22.06.22.18h-.1c0-.07-.05-.1-.12-.1-.05,0-.11.02-.11.08,0,.04.03.06.07.07,0,0,.14.04.17.04.08.02.11.09.11.15,0,.13-.11.18-.23.18-.13,0-.24-.06-.24-.21h.1Z"/>
        <path class="cls-2" d="M26.02,29.87c0,.11.05.22.18.22s.18-.11.18-.22-.05-.22-.18-.22-.18.11-.18.22h0ZM26.47,29.87c0,.16-.1.3-.28.3s-.28-.14-.28-.3.1-.3.28-.3.28.14.28.3Z"/>
        <polygon class="cls-2" points="26.66 29.58 26.76 29.58 26.76 30.07 27.06 30.07 27.06 30.16 26.66 30.16 26.66 29.58"/>
        <path class="cls-2" d="M27.22,29.58h.1v.34c0,.08,0,.17.14.17s.14-.09.14-.17v-.34h.1v.37c0,.15-.09.22-.24.22s-.24-.07-.24-.22v-.37Z"/>
        <polygon class="cls-2" points="27.85 29.58 28.32 29.58 28.32 29.67 28.14 29.67 28.14 30.16 28.04 30.16 28.04 29.67 27.85 29.67 27.85 29.58"/>
        <rect class="cls-1" x="28.49" y="29.58" width=".1" height=".58"/>
        <path class="cls-2" d="M28.88,29.87c0,.11.05.22.18.22s.18-.11.18-.22-.05-.22-.18-.22-.18.11-.18.22h0ZM29.33,29.87c0,.16-.1.3-.28.3s-.28-.14-.28-.3.1-.3.28-.3.28.14.28.3Z"/>
        <polygon class="cls-2" points="29.52 29.58 29.63 29.58 29.89 30.01 29.89 30.01 29.89 29.58 29.99 29.58 29.99 30.16 29.88 30.16 29.62 29.73 29.62 29.73 29.62 30.16 29.52 30.16 29.52 29.58"/>
        <path class="cls-2" d="M30.28,29.97c0,.09.07.12.15.12.09,0,.12-.04.12-.09s-.02-.06-.05-.07c-.04-.02-.09-.03-.17-.05-.1-.03-.13-.09-.13-.15,0-.12.11-.17.21-.17.12,0,.22.06.22.18h-.1c0-.07-.05-.1-.12-.1-.05,0-.11.02-.11.08,0,.04.03.06.07.07,0,0,.14.04.17.04.08.02.11.09.11.15,0,.13-.11.18-.23.18-.13,0-.24-.06-.24-.21h.1Z"/>
      </g>
      <g>
        <path class="cls-2" d="M20.27,28.52h.4v.45h.4v-.99h-.4c-.22,0-.4-.13-.4-.3v-.86c0-.25.27-.45.61-.45s.61.2.61.45v.33h-.4v-.45h-.4v.99h.4c.22,0,.4.13.4.3v.86c0,.25-.27.45-.61.45s-.61-.2-.61-.45v-.33Z"/>
        <polygon class="cls-2" points="22.14 26.7 21.74 26.7 21.74 26.4 22.95 26.4 22.95 26.7 22.55 26.7 22.55 29.27 22.14 29.27 22.14 26.7"/>
        <path class="cls-2" d="M23.2,29.27h.4v-1.29h.4v1.07c0,.07.04.15.09.21h.42c-.05-.07-.1-.13-.1-.21v-.96c0-.18-.08-.24-.18-.27.1-.04.18-.09.18-.23v-.91c0-.16-.18-.3-.4-.3h-.81v2.87h0ZM23.61,26.7h.4v.99h-.4v-.99Z"/>
        <path class="cls-2" d="M24.82,29.27h.4v-1.29h.4v1.29h.4v-2.45c0-.25-.27-.45-.61-.45s-.61.2-.61.45v2.45h0ZM25.23,26.7h.4v.99h-.4v-.99Z"/>
        <polygon class="cls-2" points="26.69 26.7 26.29 26.7 26.29 26.4 27.5 26.4 27.5 26.7 27.1 26.7 27.1 29.27 26.69 29.27 26.69 26.7"/>
        <path class="cls-2" d="M28.97,28.85c0,.25-.27.45-.61.45s-.61-.2-.61-.45v-2.45h.4v2.57h.4v-2.57h.4v2.45Z"/>
        <path class="cls-2" d="M29.37,28.52h.4v.45h.4v-.99h-.4c-.22,0-.4-.13-.4-.3v-.86c0-.25.27-.45.61-.45s.61.2.61.45v.33h-.4v-.45h-.4v.99h.4c.22,0,.4.13.4.3v.86c0,.25-.27.45-.61.45s-.61-.2-.61-.45v-.33Z"/>
      </g>
    </g>
  </g>
</svg>