<?xml version="1.0" encoding="UTF-8"?>
<svg xmlns="http://www.w3.org/2000/svg" viewBox="0 0 50.92 51.03">
  <defs>
    <style>
      .cls-1 {
        fill: #b99651;
      }

      .cls-2 {
        fill: #173041;
      }

      .cls-3 {
        fill: #010101;
        font-family: MyriadPro-Regular, 'Myriad Pro';
        font-size: 2px;
      }

      .cls-4 {
        fill: #fff;
      }

      .cls-5 {
        letter-spacing: -.02em;
      }

      .cls-6 {
        letter-spacing: .02em;
      }
    </style>
  </defs>
  <g id="Border">
    <rect class="cls-1" x="0" y="0" width="50.92" height="51.04"/>
    <rect class="cls-4" x="2.14" y="2.2" width="46.64" height="46.64"/>
  </g>
  <g id="Portland">
    <g>
      <path class="cls-2" d="M15.12,6.06h2.43M19.99,6.06h6.08M27.28,6.06h1.22M32.15,6.06h2.43M16.34,7.28h2.43M19.99,7.28h3.65M24.85,7.28h1.22M27.28,7.28h3.65M16.34,8.49h1.22M19.99,8.49h1.22M22.42,8.49h1.22M26.07,8.49h2.43M29.72,8.49h2.43M15.12,9.71h1.22M17.55,9.71h1.22M24.85,9.71h2.43M28.5,9.71h1.22M33.36,9.71h1.22M15.12,10.92h2.43M18.77,10.92h1.22M24.85,10.92h1.22M28.5,10.92h1.22M33.36,10.92h1.22M15.12,12.14h2.43M18.77,12.14h3.65M23.64,12.14h1.22M29.72,12.14h1.22M32.15,12.14h1.22M34.58,12.14h1.22M15.12,13.36h1.22M17.55,13.36h1.22M19.99,13.36h1.22M22.42,13.36h1.22M24.85,13.36h1.22M27.28,13.36h1.22M29.72,13.36h1.22M32.15,13.36h1.22M34.58,13.36h1.22M15.12,14.57h1.22M17.55,14.57h2.43M26.07,14.57h9.73M5.39,15.79h1.22M10.26,15.79h1.22M12.69,15.79h3.65M17.55,15.79h3.65M23.64,15.79h1.22M26.07,15.79h1.22M29.72,15.79h4.86M35.8,15.79h6.08M44.31,15.79h1.22M6.61,17h3.65M11.47,17h1.22M16.34,17h1.22M22.42,17h2.43M26.07,17h2.43M30.93,17h3.65M35.8,17h1.22M40.66,17h2.43M6.61,18.22h1.22M10.26,18.22h4.86M18.77,18.22h6.08M27.28,18.22h1.22M29.72,18.22h1.22M33.36,18.22h1.22M35.8,18.22h2.43M40.66,18.22h1.22M43.09,18.22h1.22M5.39,19.44h4.86M11.47,19.44h1.22M13.91,19.44h1.22M16.34,19.44h1.22M18.77,19.44h1.22M21.2,19.44h1.22M23.64,19.44h1.22M28.5,19.44h1.22M30.93,19.44h2.43M34.58,19.44h3.65M43.09,19.44h1.22M5.39,20.65h1.22M10.26,20.65h1.22M12.69,20.65h1.22M19.99,20.65h2.43M23.64,20.65h2.43M28.5,20.65h1.22M30.93,20.65h4.86M37.01,20.65h1.22M39.44,20.65h2.43M43.09,20.65h2.43M6.61,21.87h1.22M9.04,21.87h1.22M11.47,21.87h1.22M15.12,21.87h1.22M17.55,21.87h2.43M21.2,21.87h2.43M27.28,21.87h3.65M33.36,21.87h1.22M40.66,21.87h2.43M7.83,23.08h6.08M15.12,23.08h7.3M23.64,23.08h1.22M26.07,23.08h1.22M29.72,23.08h1.22M32.15,23.08h2.43M35.8,23.08h2.43M40.66,23.08h1.22M43.09,23.08h1.22M10.26,24.3h2.43M15.12,24.3h4.86M22.42,24.3h6.08M30.93,24.3h9.73M5.39,25.52h1.22M7.83,25.52h6.08M15.12,25.52h1.22M17.55,25.52h6.08M26.07,25.52h1.22M28.5,25.52h4.86M34.58,25.52h1.22M37.01,25.52h1.22M39.44,25.52h1.22M43.09,25.52h1.22M5.39,26.73h1.22M7.83,26.73h2.43M13.91,26.73h1.22M16.34,26.73h4.86M23.64,26.73h2.43M27.28,26.73h1.22M33.36,26.73h2.43M40.66,26.73h3.65M6.61,27.95h1.22M9.04,27.95h1.22M12.69,27.95h1.22M15.12,27.95h4.86M22.42,27.95h2.43M26.07,27.95h1.22M29.72,27.95h2.43M33.36,27.95h2.43M38.23,27.95h1.22M40.66,27.95h1.22M43.09,27.95h1.22M5.39,29.17h6.08M15.12,29.17h2.43M22.42,29.17h1.22M26.07,29.17h3.65M30.93,29.17h2.43M34.58,29.17h1.22M38.23,29.17h1.22M43.09,29.17h2.43M6.61,30.38h3.65M11.47,30.38h2.43M16.34,30.38h4.86M22.42,30.38h2.43M27.28,30.38h3.65M37.01,30.38h4.86M43.09,30.38h2.43M5.39,31.6h1.22M10.26,31.6h1.22M15.12,31.6h1.22M19.99,31.6h3.65M24.85,31.6h2.43M28.5,31.6h1.22M33.36,31.6h1.22M35.8,31.6h1.22M38.23,31.6h1.22M43.09,31.6h1.22M9.04,32.81h1.22M12.69,32.81h3.65M17.55,32.81h2.43M24.85,32.81h1.22M27.28,32.81h2.43M30.93,32.81h3.65M35.8,32.81h1.22M38.23,32.81h1.22M43.09,32.81h1.22M9.04,34.03h1.22M11.47,34.03h1.22M13.91,34.03h1.22M16.34,34.03h1.22M21.2,34.03h2.43M26.07,34.03h1.22M28.5,34.03h3.65M35.8,34.03h2.43M43.09,34.03h2.43M5.39,35.25h3.65M10.26,35.25h1.22M12.69,35.25h3.65M18.77,35.25h1.22M22.42,35.25h2.43M26.07,35.25h2.43M30.93,35.25h2.43M34.58,35.25h6.08M15.12,36.46h1.22M19.99,36.46h2.43M23.64,36.46h4.86M30.93,36.46h4.86M39.44,36.46h1.22M41.88,36.46h2.43M15.12,37.68h3.65M23.64,37.68h1.22M27.28,37.68h1.22M29.72,37.68h1.22M34.58,37.68h1.22M37.01,37.68h1.22M39.44,37.68h2.43M43.09,37.68h1.22M18.77,38.89h3.65M24.85,38.89h1.22M29.72,38.89h1.22M32.15,38.89h1.22M34.58,38.89h1.22M39.44,38.89h1.22M43.09,38.89h2.43M15.12,40.11h1.22M18.77,40.11h1.22M21.2,40.11h1.22M24.85,40.11h1.22M28.5,40.11h1.22M32.15,40.11h1.22M34.58,40.11h7.3M16.34,41.33h4.86M22.42,41.33h1.22M26.07,41.33h4.86M33.36,41.33h1.22M37.01,41.33h4.86M43.09,41.33h1.22M17.55,42.54h3.65M22.42,42.54h2.43M27.28,42.54h1.22M29.72,42.54h2.43M35.8,42.54h4.86M41.88,42.54h1.22M16.34,43.76h3.65M21.2,43.76h1.22M23.64,43.76h3.65M30.93,43.76h2.43M34.58,43.76h3.65M15.12,44.97h1.22M18.77,44.97h1.22M22.42,44.97h1.22M26.07,44.97h1.22M28.5,44.97h1.22M30.93,44.97h4.86M44.31,44.97h1.22"/>
      <path class="cls-2" d="M45.53,45.58h-1.22v-1.22h1.22v1.22ZM35.8,45.58h-4.86v-2.43h-1.22v-1.22h-1.22v1.22h-1.22v-1.22h-1.22v-1.22h-1.22v-2.43h-1.22v-2.43h-1.22v-1.22h-1.22v-1.22h2.43v1.22h1.22v1.22h1.22v-2.43h-1.22v-2.43h-1.22v1.22h-3.65v-1.22h-3.65v-1.22h-1.22v-2.43h-1.22v-1.22h-3.65v2.43h1.22v1.22h2.43v1.22h-2.43v-1.22h-1.22v1.22h1.22v1.22h-1.22v-1.22h-3.65v-1.22h-1.22v-1.22h1.22v-1.22h-1.22v-2.43h1.22v2.43h1.22v1.22h1.22v-1.22h-1.22v-2.43h2.43v-1.22h-2.43v-1.22h-1.22v-1.22h-1.22v-2.43h1.22v-2.43h-1.22v-1.22h1.22v1.22h3.65v1.22h1.22v-1.22h-1.22v-1.22h1.22v1.22h1.22v1.22h2.43v2.43h-1.22v-1.22h-1.22v1.22h1.22v1.22h-1.22v-1.22h-1.22v-1.22h-1.22v-1.22h-2.43v1.22h2.43v1.22h1.22v1.22h1.22v1.22h1.22v1.22h-1.22v1.22h1.22v1.22h1.22v1.22h1.22v-1.22h-1.22v-4.86h1.22v1.22h1.22v-1.22h2.43v1.22h1.22v-1.22h-1.22v-1.22h-1.22v-2.43h3.65v-1.22h1.22v-1.22h1.22v4.86h1.22v1.22h-2.43v-2.43h-1.22v2.43h1.22v1.22h1.22v1.22h1.22v-1.22h1.22v1.22h1.22v1.22h2.43v-1.22h-1.22v-1.22h-2.43v-1.22h1.22v-2.43h-1.22v-1.22h-1.22v-3.65h-1.22v-1.22h-1.22v-1.22h1.22v1.22h1.22v1.22h1.22v-1.22h1.22v1.22h1.22v-2.43h-1.22v-2.43h-1.22v1.22h-1.22v1.22h-1.22v-2.43h1.22v-1.22h-1.22v-1.22h-1.22v2.43h-1.22v-1.22h-1.22v1.22h-1.22v-3.65h6.08v2.43h1.22v-2.43h1.22v1.22h2.43v1.22h1.22v1.22h-2.43v-1.22h-1.22v1.22h1.22v2.43h1.22v2.43h1.22v-2.43h1.22v2.43h1.22v-2.43h-1.22v-2.43h1.22v2.43h1.22v3.65h6.08v1.22h1.22v1.22h1.22v2.43h1.22v1.22h-2.43v-3.65h-1.22v1.22h-1.22v-2.43h-3.65v1.22h1.22v3.65h-1.22v-1.22h-1.22v1.22h-1.22v2.43h1.22v-1.22h2.43v1.22h2.43v2.43h2.43v-1.22h1.22v3.65h1.22v2.43h-1.22v2.43h1.22v1.22h-2.43v-7.3h-1.22v1.22h-1.22v-2.43h-1.22v-1.22h-1.22v1.22h-1.22v-1.22h-1.22v4.86h-1.22v-1.22h-1.22v-2.43h-4.86v-1.22h-1.22v1.22h1.22v1.22h-1.22v-1.22h-1.22v-1.22h-2.43v1.22h2.43v1.22h1.22v1.22h2.43v1.22h1.22v1.22h-1.22v2.43h1.22v-1.22h2.43v-1.22h1.22v2.43h-2.43v1.22h1.22v1.22h1.22v-1.22h1.22v-3.65h1.22v2.43h1.22v1.22h2.43v2.43h1.22v1.22h-1.22v1.22h1.22v2.43h1.22v1.22h-1.22v-1.22h-1.22v1.22h-2.43v1.22h-2.43v1.22ZM33.36,44.37h1.22v-1.22h1.22v-1.22h1.22v-1.22h-2.43v-3.65h-3.65v-2.43h-2.43v-1.22h-1.22v-1.22h-1.22v1.22h1.22v1.22h1.22v3.65h-1.22v-1.22h-2.43v1.22h1.22v2.43h2.43v-1.22h1.22v1.22h1.22v1.22h1.22v1.22h1.22v1.22ZM35.8,39.5h3.65v-3.65h-3.65v3.65ZM27.28,32.21h1.22v-1.22h-1.22v-1.22h-1.22v-2.43h-1.22v1.22h-1.22v1.22h1.22v1.22h2.43v1.22ZM21.2,30.99h1.22v-3.65h1.22v-1.22h-2.43v1.22h-1.22v1.22h-2.43v1.22h3.65v1.22ZM33.36,26.12h1.22v-1.22h-1.22v1.22ZM16.34,26.12h1.22v-1.22h-1.22v1.22ZM19.99,24.91h2.43v-1.22h-2.43v1.22ZM30.93,23.69h1.22v-1.22h1.22v-1.22h-2.43v-2.43h-1.22v-1.22h1.22v1.22h2.43v1.22h1.22v-1.22h-1.22v-1.22h-2.43v-1.22h-1.22v-1.22h-2.43v1.22h1.22v2.43h1.22v2.43h1.22v2.43ZM22.42,23.69h1.22v-1.22h-1.22v1.22ZM10.26,22.48h1.22v-1.22h-1.22v-1.22h-3.65v1.22h1.22v1.22h1.22v-1.22h1.22v1.22ZM19.99,20.04h1.22v-1.22h-1.22v1.22ZM34.58,18.83h1.22v-3.65h-1.22v3.65ZM29.72,45.58h-1.22v-1.22h1.22v1.22ZM27.28,45.58h-1.22v-1.22h-2.43v-1.22h-1.22v-2.43h-1.22v-1.22h-1.22v1.22h1.22v2.43h1.22v1.22h1.22v1.22h-1.22v-1.22h-1.22v-1.22h-1.22v2.43h-1.22v-1.22h-2.43v-1.22h1.22v-1.22h-1.22v-1.22h-1.22v-1.22h1.22v1.22h2.43v-2.43h-3.65v-2.43h-2.43v-1.22h-1.22v-1.22h1.22v1.22h1.22v-1.22h-1.22v-1.22h2.43v-1.22h1.22v2.43h1.22v1.22h-1.22v-1.22h-1.22v1.22h1.22v2.43h2.43v1.22h3.65v2.43h1.22v1.22h1.22v1.22h2.43v2.43ZM16.34,45.58h-1.22v-1.22h1.22v1.22ZM44.31,41.93h-1.22v-1.22h1.22v1.22ZM34.58,41.93h-1.22v-1.22h-1.22v-2.43h1.22v2.43h1.22v1.22ZM45.53,39.5h-2.43v-2.43h-1.22v-1.22h2.43v2.43h1.22v1.22ZM30.93,39.5h-1.22v-2.43h1.22v2.43ZM38.23,38.29h-1.22v-1.22h1.22v1.22ZM22.42,37.07h-2.43v-1.22h-1.22v-1.22h1.22v1.22h2.43v1.22ZM11.47,35.85h-1.22v-1.22h-1.22v-2.43h1.22v2.43h1.22v1.22ZM9.04,35.85h-3.65v-1.22h3.65v1.22ZM39.44,33.42h-1.22v-2.43h-1.22v-1.22h1.22v-2.43h1.22v2.43h2.43v1.22h-2.43v2.43ZM19.99,33.42h-2.43v-1.22h2.43v1.22ZM6.61,32.21h-1.22v-1.22h1.22v1.22ZM33.36,29.77h-2.43v-1.22h-1.22v-1.22h2.43v1.22h1.22v1.22ZM13.91,28.56h-1.22v-1.22h1.22v1.22ZM44.31,23.69h-1.22v-1.22h-1.22v1.22h-1.22v-2.43h-1.22v-1.22h2.43v1.22h1.22v1.22h1.22v1.22ZM17.55,20.04h-1.22v-1.22h1.22v1.22ZM17.55,17.61h-1.22v-1.22h-3.65v-1.22h2.43v-6.08h1.22v1.22h1.22v2.43h1.22v1.22h1.22v1.22h1.22v1.22h-3.65v-3.65h-1.22v3.65h1.22v1.22ZM45.53,16.4h-1.22v-1.22h1.22v1.22ZM23.64,13.96h-1.22v-1.22h-1.22v1.22h-1.22v-1.22h-1.22v-2.43h-1.22v-1.22h-1.22v-2.43h-1.22v-1.22h2.43v1.22h1.22v1.22h-1.22v1.22h1.22v1.22h1.22v1.22h2.43v1.22h1.22v1.22ZM34.58,6.67h-2.43v-1.22h2.43v1.22Z"/>
    </g>
    <text class="cls-3" transform="translate(5.39 48.14)"><tspan class="cls-5" x="0" y="0">P</tspan><tspan x="1.01" y="0">o</tspan><tspan class="cls-6" x="2.11" y="0">r</tspan><tspan x="2.81" y="0">tland</tspan></text>
    <g>
      <rect class="cls-1" x="5.39" y="5.45" width="8.51" height="8.51"/>
      <rect class="cls-4" x="6.61" y="6.67" width="6.08" height="6.08"/>
      <rect class="cls-2" x="7.83" y="7.88" width="3.65" height="3.65"/>
      <rect class="cls-1" x="37.01" y="5.45" width="8.51" height="8.51"/>
      <rect class="cls-4" x="38.23" y="6.67" width="6.08" height="6.08"/>
      <rect class="cls-2" x="39.44" y="7.88" width="3.65" height="3.65"/>
      <rect class="cls-1" x="5.39" y="37.07" width="8.51" height="8.51"/>
      <rect class="cls-4" x="6.61" y="38.29" width="6.08" height="6.08"/>
      <rect class="cls-2" x="7.83" y="39.5" width="3.65" height="3.65"/>
    </g>
  </g>
</svg>