<?xml version="1.0" encoding="UTF-8"?>
<svg xmlns="http://www.w3.org/2000/svg" viewBox="0 0 50.92 51.03">
  <defs>
    <style>
      .cls-1 {
        fill: #b99651;
      }

      .cls-2 {
        fill: #173041;
      }

      .cls-3 {
        fill: #010101;
        font-family: MyriadPro-Regular, 'Myriad Pro';
        font-size: 2px;
      }

      .cls-4 {
        fill: #fff;
      }

      .cls-5 {
        letter-spacing: .01em;
      }
    </style>
  </defs>
  <g id="Border">
    <rect class="cls-1" x="0" y="0" width="50.92" height="51.04"/>
    <rect class="cls-4" x="2.14" y="2.2" width="46.64" height="46.64"/>
  </g>
  <g id="Richmond">
    <rect class="cls-1" x="5.39" y="5.45" width="8.51" height="8.51"/>
    <rect class="cls-4" x="6.61" y="6.67" width="6.08" height="6.08"/>
    <rect class="cls-2" x="7.83" y="7.88" width="3.65" height="3.65"/>
    <rect class="cls-1" x="37.01" y="5.45" width="8.51" height="8.51"/>
    <rect class="cls-4" x="38.23" y="6.67" width="6.08" height="6.08"/>
    <rect class="cls-2" x="39.44" y="7.88" width="3.65" height="3.65"/>
    <rect class="cls-1" x="5.39" y="37.07" width="8.51" height="8.51"/>
    <rect class="cls-4" x="6.61" y="38.29" width="6.08" height="6.08"/>
    <rect class="cls-2" x="7.83" y="39.5" width="3.65" height="3.65"/>
    <text class="cls-3" transform="translate(5.39 48.14)"><tspan class="cls-5" x="0" y="0">R</tspan><tspan x="1.1" y="0">ichmond</tspan></text>
    <rect class="cls-2" x="24.85" y="12.75" width="1.22" height="2.43"/>
    <rect class="cls-2" x="33.36" y="30.99" width="1.22" height="1.22"/>
    <rect class="cls-2" x="16.34" y="30.99" width="2.43" height="1.22"/>
    <rect class="cls-2" x="12.69" y="27.34" width="1.22" height="1.22"/>
    <rect class="cls-2" x="11.47" y="21.26" width="1.22" height="1.22"/>
    <path class="cls-2" d="M43.09,15.18h-6.08v2.43h-2.43v1.22h1.22v1.22h-1.22v-1.22h-1.22v1.22h-1.22v1.22h1.22v1.22h1.22v-1.22h1.22v1.22h-1.22v2.43h-2.43v1.22h1.22v1.22h4.86v1.22h-1.22v1.22h2.43v1.22h2.43v-1.22h3.65v-1.22h-1.22v-1.22h-1.22v-1.22h-2.43v1.22h1.22v1.22h-1.22v-1.22h-1.22v-1.22h1.22v-1.22h-1.22v-1.22h-1.22v-1.22h1.22v-1.22h1.22v1.22h1.22v1.22h-1.22v1.22h2.43v-1.22h1.22v-1.22h1.22v-1.22h-3.65v-1.22h2.43v-2.43h1.22v-1.22h-2.43v-1.22ZM38.23,26.12h-1.22v-1.22h1.22v1.22ZM41.88,17.61v1.22h-1.22v-1.22h-1.22v2.43h-1.22v1.22h-1.22v-1.22h1.22v-2.43h1.22v-1.22h1.22v1.22h1.22Z"/>
    <rect class="cls-2" x="34.58" y="12.75" width="1.22" height="1.22"/>
    <rect class="cls-2" x="33.36" y="28.56" width="1.22" height="1.22"/>
    <rect class="cls-2" x="19.99" y="5.45" width="1.22" height="2.43"/>
    <rect class="cls-2" x="44.31" y="24.91" width="1.22" height="2.43"/>
    <rect class="cls-2" x="44.31" y="30.99" width="1.22" height="1.22"/>
    <rect class="cls-2" x="38.23" y="44.37" width="1.22" height="1.22"/>
    <rect class="cls-2" x="17.55" y="6.67" width="1.22" height="1.22"/>
    <rect class="cls-2" x="43.09" y="44.37" width="1.22" height="1.22"/>
    <polygon class="cls-2" points="24.85 9.1 26.07 9.1 26.07 5.45 24.85 5.45 24.85 6.67 23.63 6.67 23.63 7.88 24.85 7.88 24.85 9.1"/>
    <polygon class="cls-2" points="28.5 6.67 30.93 6.67 30.93 5.45 27.28 5.45 27.28 7.88 28.5 7.88 28.5 6.67"/>
    <rect class="cls-2" x="22.42" y="7.88" width="1.22" height="1.22"/>
    <rect class="cls-2" x="5.39" y="27.34" width="1.22" height="1.22"/>
    <polygon class="cls-2" points="6.61 30.99 5.39 30.99 5.39 35.85 6.61 35.85 6.61 32.21 9.04 32.21 9.04 30.99 7.83 30.99 7.83 29.77 6.61 29.77 6.61 30.99"/>
    <rect class="cls-2" x="5.39" y="15.18" width="1.22" height="2.43"/>
    <rect class="cls-2" x="6.61" y="17.61" width="1.22" height="1.22"/>
    <rect class="cls-2" x="12.69" y="34.64" width="1.22" height="1.22"/>
    <rect class="cls-2" x="32.15" y="44.37" width="4.86" height="1.22"/>
    <rect class="cls-2" x="29.72" y="44.37" width="1.22" height="1.22"/>
    <rect class="cls-2" x="26.07" y="44.37" width="1.22" height="1.22"/>
    <rect class="cls-2" x="27.28" y="43.15" width="1.22" height="1.22"/>
    <rect class="cls-2" x="21.2" y="43.15" width="1.22" height="2.43"/>
    <polygon class="cls-2" points="16.34 44.37 15.12 44.37 15.12 45.58 17.55 45.58 17.55 43.15 16.34 43.15 16.34 44.37"/>
    <polygon class="cls-2" points="32.15 18.83 33.36 18.83 33.36 17.61 34.58 17.61 34.58 15.18 32.15 15.18 32.15 18.83"/>
    <rect class="cls-2" x="27.28" y="12.75" width="1.22" height="1.22"/>
    <rect class="cls-2" x="28.5" y="11.53" width="1.22" height="1.22"/>
    <rect class="cls-2" x="17.55" y="12.75" width="1.22" height="1.22"/>
    <polygon class="cls-2" points="18.77 9.1 17.55 9.1 17.55 10.31 18.77 10.31 18.77 12.75 19.99 12.75 19.99 11.53 22.42 11.53 22.42 13.96 23.63 13.96 23.63 11.53 26.07 11.53 26.07 10.31 21.2 10.31 21.2 9.1 19.99 9.1 19.99 7.88 18.77 7.88 18.77 9.1"/>
    <polygon class="cls-2" points="30.93 12.75 32.15 12.75 32.15 13.96 33.36 13.96 33.36 11.53 32.15 11.53 32.15 10.31 29.72 10.31 29.72 11.53 30.93 11.53 30.93 12.75"/>
    <rect class="cls-2" x="33.36" y="10.31" width="1.22" height="1.22"/>
    <rect class="cls-2" x="27.28" y="9.1" width="2.43" height="1.22"/>
    <polygon class="cls-2" points="13.91 32.21 12.69 32.21 12.69 30.99 15.12 30.99 15.12 29.77 12.69 29.77 12.69 28.56 11.47 28.56 11.47 26.12 15.12 26.12 15.12 24.91 10.26 24.91 10.26 27.34 9.04 27.34 9.04 28.56 7.83 28.56 7.83 29.77 10.26 29.77 10.26 33.42 7.83 33.42 7.83 34.64 9.04 34.64 9.04 35.85 11.47 35.85 11.47 33.42 13.91 33.42 13.91 32.21"/>
    <polygon class="cls-2" points="32.15 10.31 33.36 10.31 33.36 9.1 34.58 9.1 34.58 10.31 35.8 10.31 35.8 7.88 33.36 7.88 33.36 6.67 34.58 6.67 34.58 5.45 32.15 5.45 32.15 7.88 29.72 7.88 29.72 9.1 32.15 9.1 32.15 10.31"/>
    <polygon class="cls-2" points="23.63 41.93 22.42 41.93 22.42 43.15 23.63 43.15 23.63 45.58 24.85 45.58 24.85 43.15 27.28 43.15 27.28 41.93 28.5 41.93 28.5 40.72 26.07 40.72 26.07 41.93 24.85 41.93 24.85 40.72 26.07 40.72 26.07 39.5 23.63 39.5 23.63 41.93"/>
    <polygon class="cls-2" points="6.61 22.48 5.39 22.48 5.39 26.12 6.61 26.12 6.61 27.34 7.83 27.34 7.83 26.12 9.04 26.12 9.04 24.91 6.61 24.91 6.61 22.48"/>
    <polygon class="cls-2" points="7.83 21.26 9.04 21.26 9.04 20.04 12.69 20.04 12.69 18.83 7.83 18.83 7.83 20.04 6.61 20.04 6.61 22.48 7.83 22.48 7.83 21.26"/>
    <polygon class="cls-2" points="13.91 20.04 12.69 20.04 12.69 21.26 13.91 21.26 13.91 22.48 12.69 22.48 12.69 23.69 16.34 23.69 16.34 26.12 15.12 26.12 15.12 29.77 16.34 29.77 16.34 27.34 19.99 27.34 19.99 28.56 17.55 28.56 17.55 29.77 18.77 29.77 18.77 30.99 19.99 30.99 19.99 29.77 21.2 29.77 21.2 30.99 22.42 30.99 22.42 28.56 21.2 28.56 21.2 27.34 23.63 27.34 23.63 26.12 21.2 26.12 21.2 23.69 19.99 23.69 19.99 22.48 18.77 22.48 18.77 24.91 19.99 24.91 19.99 26.12 18.77 26.12 18.77 24.91 17.55 24.91 17.55 21.26 16.34 21.26 16.34 22.48 15.12 22.48 15.12 21.26 16.34 21.26 16.34 20.04 15.12 20.04 15.12 17.61 16.34 17.61 16.34 16.4 13.91 16.4 13.91 17.61 12.69 17.61 12.69 18.83 13.91 18.83 13.91 20.04"/>
    <rect class="cls-2" x="9.04" y="21.26" width="1.22" height="3.65"/>
    <polygon class="cls-2" points="12.69 16.4 13.91 16.4 13.91 15.18 7.83 15.18 7.83 16.4 11.47 16.4 11.47 17.61 12.69 17.61 12.69 16.4"/>
    <polygon class="cls-2" points="21.2 18.83 19.99 18.83 19.99 22.48 21.2 22.48 21.2 20.04 22.42 20.04 22.42 18.83 23.63 18.83 23.63 20.04 24.85 20.04 24.85 21.26 26.07 21.26 26.07 20.04 29.72 20.04 29.72 18.83 27.28 18.83 27.28 17.61 29.72 17.61 29.72 18.83 30.93 18.83 30.93 16.4 29.72 16.4 29.72 15.18 32.15 15.18 32.15 13.96 30.93 13.96 30.93 12.75 29.72 12.75 29.72 13.96 28.5 13.96 28.5 16.4 27.28 16.4 27.28 15.18 26.07 15.18 26.07 17.61 22.42 17.61 22.42 16.4 23.63 16.4 23.63 15.18 21.2 15.18 21.2 12.75 19.99 12.75 19.99 15.18 16.34 15.18 16.34 16.4 21.2 16.4 21.2 18.83"/>
    <rect class="cls-2" x="30.93" y="18.83" width="1.22" height="1.22"/>
    <rect class="cls-2" x="17.55" y="17.61" width="1.22" height="1.22"/>
    <polygon class="cls-2" points="16.34 9.1 17.55 9.1 17.55 7.88 15.12 7.88 15.12 15.18 16.34 15.18 16.34 9.1"/>
    <polygon class="cls-2" points="27.28 30.99 23.63 30.99 23.63 32.21 26.07 32.21 26.07 33.42 27.28 33.42 27.28 30.99"/>
    <polygon class="cls-2" points="24.85 23.69 26.07 23.69 26.07 22.48 24.85 22.48 24.85 21.26 23.63 21.26 23.63 23.69 22.42 23.69 22.42 24.91 23.63 24.91 23.63 26.12 24.85 26.12 24.85 23.69"/>
    <rect class="cls-2" x="21.2" y="22.48" width="1.22" height="1.22"/>
    <rect class="cls-2" x="34.58" y="29.77" width="2.43" height="1.22"/>
    <rect class="cls-2" x="37.01" y="30.99" width="1.22" height="1.22"/>
    <rect class="cls-2" x="22.42" y="20.04" width="1.22" height="1.22"/>
    <rect class="cls-2" x="17.55" y="20.04" width="1.22" height="1.22"/>
    <rect class="cls-2" x="29.72" y="22.48" width="1.22" height="1.22"/>
    <rect class="cls-2" x="29.72" y="20.04" width="1.22" height="1.22"/>
    <polygon class="cls-2" points="23.63 28.56 24.85 28.56 24.85 29.77 26.07 29.77 26.07 26.12 24.85 26.12 24.85 27.34 23.63 27.34 23.63 28.56"/>
    <rect class="cls-2" x="26.07" y="24.91" width="1.22" height="1.22"/>
    <rect class="cls-2" x="27.28" y="21.26" width="1.22" height="2.43"/>
    <rect class="cls-2" x="30.93" y="23.69" width="1.22" height="1.22"/>
    <rect class="cls-2" x="37.01" y="37.07" width="1.22" height="1.22"/>
    <rect class="cls-2" x="30.93" y="21.26" width="1.22" height="1.22"/>
    <rect class="cls-2" x="24.85" y="33.42" width="1.22" height="1.22"/>
    <rect class="cls-2" x="28.5" y="28.56" width="1.22" height="1.22"/>
    <rect class="cls-2" x="39.44" y="22.48" width="1.22" height="1.22"/>
    <rect class="cls-2" x="27.28" y="29.77" width="1.22" height="1.22"/>
    <path class="cls-2" d="M38.23,33.42h1.22v1.22h-1.22v-1.22h-1.22v-1.22h-1.22v1.22h-3.65v-4.86h1.22v-1.22h-1.22v-1.22h-4.86v2.43h1.22v-1.22h1.22v1.22h1.22v2.43h-1.22v1.22h1.22v1.22h-1.22v-1.22h-1.22v1.22h-1.22v1.22h-1.22v1.22h-1.22v1.22h-1.22v-1.22h-1.22v-1.22h1.22v-1.22h-2.43v-2.43h-1.22v2.43h-3.65v-1.22h-1.22v1.22h-1.22v1.22h2.43v1.22h-1.22v1.22h1.22v1.22h4.86v1.22h-4.86v-1.22h-1.22v4.86h1.22v-2.43h1.22v1.22h4.86v-2.43h1.22v-1.22h2.43v1.22h2.43v-1.22h-1.22v-1.22h2.43v3.65h1.22v1.22h-1.22v1.22h1.22v1.22h1.22v-1.22h4.86v1.22h1.22v-1.22h1.22v-1.22h-2.43v-1.22h2.43v1.22h1.22v1.22h-1.22v1.22h3.65v-1.22h-1.22v-3.65h1.22v1.22h1.22v1.22h1.22v-3.65h-1.22v-1.22h-1.22v-1.22h-1.22v2.43h-1.22v-3.65h2.43v1.22h1.22v1.22h1.22v-3.65h-1.22v-1.22h-6.08v1.22ZM17.55,34.64h1.22v1.22h1.22v-1.22h1.22v1.22h-1.22v1.22h-2.43v-2.43ZM35.8,40.72v1.22h-1.22v-1.22h-1.22v1.22h-1.22v-1.22h1.22v-1.22h-2.43v-4.86h1.22v3.65h1.22v1.22h1.22v1.22h1.22ZM39.44,39.5h-3.65v-3.65h3.65v3.65ZM34.58,35.85h-1.22v-1.22h1.22v1.22Z"/>
  </g>
</svg>