<?xml version="1.0" encoding="UTF-8"?>
<svg xmlns="http://www.w3.org/2000/svg" viewBox="0 0 50.92 51.03">
  <defs>
    <style>
      .cls-1 {
        fill: #b99651;
      }

      .cls-2 {
        fill: #173041;
      }

      .cls-3 {
        fill: #010101;
        font-family: MyriadPro-Regular, 'Myriad Pro';
        font-size: 2px;
      }

      .cls-4 {
        fill: #fff;
      }

      .cls-5 {
        letter-spacing: 0em;
      }
    </style>
  </defs>
  <g id="Border">
    <rect class="cls-1" x="0" y="0" width="50.92" height="51.04"/>
    <rect class="cls-4" x="2.14" y="2.2" width="46.64" height="46.64"/>
  </g>
  <g id="Salem">
    <g>
      <path class="cls-2" d="M17.55,6.06h1.22M21.2,6.06h1.22M24.85,6.06h6.08M32.15,6.06h2.43M16.34,7.27h1.22M19.99,7.27h7.3M32.15,7.27h1.22M15.12,8.49h4.86M21.2,8.49h1.22M24.85,8.49h3.65M29.72,8.49h1.22M33.36,8.49h2.43M15.12,9.71h1.22M17.55,9.71h2.43M22.42,9.71h1.22M24.85,9.71h1.22M28.5,9.71h4.86M34.58,9.71h1.22M15.12,10.92h1.22M17.55,10.92h1.22M19.99,10.92h2.43M23.63,10.92h1.22M27.28,10.92h1.22M30.93,10.92h1.22M34.58,10.92h1.22M15.12,12.14h2.43M22.42,12.14h3.65M29.72,12.14h3.65M15.12,13.36h1.22M17.55,13.36h1.22M19.99,13.36h1.22M22.42,13.36h1.22M24.85,13.36h1.22M27.28,13.36h1.22M29.72,13.36h1.22M32.15,13.36h1.22M34.58,13.36h1.22M15.12,14.57h1.22M17.55,14.57h1.22M19.99,14.57h1.22M23.63,14.57h1.22M30.93,14.57h1.22M5.39,15.79h1.22M7.83,15.79h6.08M18.77,15.79h6.08M26.07,15.79h1.22M32.15,15.79h2.43M37.01,15.79h6.08M5.39,17h1.22M7.83,17h4.86M15.12,17h1.22M17.55,17h3.65M27.28,17h7.3M37.01,17h2.43M40.66,17h4.86M5.39,18.22h1.22M7.83,18.22h2.43M12.69,18.22h1.22M15.12,18.22h2.43M18.77,18.22h2.43M23.63,18.22h2.43M27.28,18.22h1.22M29.72,18.22h2.43M34.58,18.22h3.65M39.44,18.22h1.22M41.88,18.22h2.43M5.39,19.44h3.65M10.26,19.44h1.22M15.12,19.44h2.43M22.42,19.44h3.65M28.5,19.44h1.22M30.93,19.44h3.65M35.8,19.44h2.43M39.44,19.44h4.86M9.04,20.65h6.08M16.34,20.65h1.22M18.77,20.65h2.43M27.28,20.65h1.22M30.93,20.65h1.22M33.36,20.65h3.65M38.23,20.65h3.65M10.26,21.87h1.22M15.12,21.87h2.43M18.77,21.87h1.22M22.42,21.87h3.65M29.72,21.87h4.86M35.8,21.87h3.65M40.66,21.87h4.86M5.39,23.08h2.43M9.04,23.08h1.22M11.47,23.08h8.51M27.28,23.08h2.43M35.8,23.08h2.43M39.44,23.08h1.22M41.88,23.08h2.43M5.39,24.3h1.22M9.04,24.3h3.65M17.55,24.3h3.65M24.85,24.3h1.22M28.5,24.3h3.65M35.8,24.3h3.65M40.66,24.3h2.43M6.61,25.52h1.22M10.26,25.52h1.22M12.69,25.52h1.22M17.55,25.52h4.86M26.07,25.52h1.22M28.5,25.52h1.22M32.15,25.52h1.22M34.58,25.52h2.43M38.23,25.52h2.43M44.31,25.52h1.22M5.39,26.73h3.65M10.26,26.73h1.22M13.91,26.73h1.22M16.34,26.73h1.22M22.42,26.73h1.22M24.85,26.73h6.08M33.36,26.73h6.08M40.66,26.73h2.43M44.31,26.73h1.22M5.39,27.95h1.22M7.83,27.95h1.22M10.26,27.95h6.08M17.55,27.95h3.65M23.63,27.95h3.65M29.72,27.95h1.22M32.15,27.95h1.22M38.23,27.95h2.43M41.88,27.95h2.43M6.61,29.17h3.65M11.47,29.17h1.22M15.12,29.17h2.43M18.77,29.17h1.22M21.2,29.17h1.22M24.85,29.17h4.86M33.36,29.17h1.22M35.8,29.17h9.73M6.61,30.38h1.22M9.04,30.38h1.22M12.69,30.38h1.22M15.12,30.38h1.22M18.77,30.38h1.22M22.42,30.38h1.22M24.85,30.38h1.22M29.72,30.38h3.65M34.58,30.38h2.43M39.44,30.38h2.43M5.39,31.6h1.22M9.04,31.6h2.43M18.77,31.6h1.22M22.42,31.6h2.43M26.07,31.6h2.43M30.93,31.6h1.22M33.36,31.6h1.22M37.01,31.6h1.22M44.31,31.6h1.22M5.39,32.81h1.22M7.83,32.81h3.65M12.69,32.81h3.65M17.55,32.81h1.22M23.63,32.81h3.65M29.72,32.81h2.43M34.58,32.81h2.43M38.23,32.81h6.08M5.39,34.03h1.22M9.04,34.03h2.43M16.34,34.03h2.43M23.63,34.03h1.22M27.28,34.03h1.22M30.93,34.03h2.43M35.8,34.03h2.43M39.44,34.03h3.65M5.39,35.25h1.22M9.04,35.25h2.43M12.69,35.25h2.43M16.34,35.25h2.43M23.63,35.25h1.22M26.07,35.25h2.43M29.72,35.25h1.22M32.15,35.25h8.51M43.09,35.25h2.43M15.12,36.46h7.3M24.85,36.46h1.22M27.28,36.46h8.51M39.44,36.46h1.22M41.88,36.46h1.22M44.31,36.46h1.22M16.34,37.68h1.22M23.63,37.68h2.43M27.28,37.68h1.22M29.72,37.68h2.43M33.36,37.68h2.43M37.01,37.68h1.22M39.44,37.68h1.22M41.88,37.68h2.43M15.12,38.89h1.22M18.77,38.89h1.22M22.42,38.89h1.22M29.72,38.89h6.08M39.44,38.89h6.08M15.12,40.11h3.65M19.99,40.11h1.22M22.42,40.11h2.43M27.28,40.11h1.22M30.93,40.11h1.22M34.58,40.11h7.3M43.09,40.11h2.43M15.12,41.33h1.22M17.55,41.33h1.22M21.2,41.33h1.22M23.63,41.33h3.65M29.72,41.33h4.86M35.8,41.33h1.22M39.44,41.33h2.43M44.31,41.33h1.22M15.12,42.54h1.22M18.77,42.54h3.65M26.07,42.54h1.22M28.5,42.54h1.22M30.93,42.54h8.51M40.66,42.54h1.22M16.34,43.76h6.08M24.85,43.76h1.22M27.28,43.76h4.86M39.44,43.76h3.65M15.12,44.98h1.22M17.55,44.98h1.22M19.99,44.98h1.22M22.42,44.98h1.22M26.07,44.98h1.22M28.5,44.98h2.43M32.15,44.98h4.86M38.23,44.98h1.22M43.09,44.98h1.22"/>
      <path class="cls-2" d="M44.31,45.58h-1.22v-1.22h-3.65v-1.22h-7.3v1.22h4.86v1.22h-4.86v-1.22h-1.22v1.22h-2.43v-1.22h-1.22v-1.22h-1.22v-1.22h-2.43v-1.22h-1.22v-2.43h1.22v1.22h1.22v1.22h2.43v2.43h1.22v-1.22h1.22v1.22h1.22v-1.22h-1.22v-1.22h1.22v-1.22h-1.22v-2.43h-1.22v1.22h-1.22v-2.43h-1.22v-1.22h1.22v-1.22h-2.43v2.43h1.22v2.43h-2.43v-1.22h1.22v-1.22h-1.22v-3.65h-1.22v-2.43h-1.22v-1.22h-1.22v3.65h-1.22v-3.65h-1.22v-1.22h-1.22v-1.22h1.22v1.22h3.65v1.22h1.22v1.22h1.22v1.22h1.22v1.22h1.22v-1.22h-1.22v-2.43h-1.22v-1.22h-1.22v-1.22h-4.86v-2.43h-4.86v1.22h1.22v1.22h1.22v1.22h1.22v1.22h1.22v1.22h-1.22v1.22h-1.22v-2.43h-2.43v1.22h1.22v1.22h-1.22v-1.22h-1.22v-1.22h-1.22v-3.65h-1.22v-2.43h1.22v1.22h1.22v-1.22h-1.22v-1.22h-1.22v-1.22h-3.65v-4.86h1.22v3.65h1.22v-3.65h6.08v1.22h-1.22v1.22h1.22v1.22h-1.22v-1.22h-2.43v1.22h1.22v1.22h3.65v1.22h1.22v-1.22h-1.22v-3.65h1.22v1.22h1.22v4.86h1.22v-2.43h2.43v1.22h-1.22v2.43h1.22v1.22h1.22v1.22h1.22v1.22h1.22v-1.22h1.22v-1.22h-1.22v-1.22h1.22v1.22h1.22v1.22h1.22v-2.43h-1.22v-1.22h2.43v1.22h2.43v1.22h1.22v1.22h1.22v-1.22h1.22v-3.65h-1.22v1.22h-4.86v-1.22h1.22v-2.43h-1.22v-1.22h-1.22v1.22h1.22v1.22h-1.22v-1.22h-1.22v-2.43h-1.22v-1.22h1.22v1.22h4.86v-1.22h-1.22v-1.22h-1.22v-2.43h1.22v-1.22h-2.43v-1.22h-2.43v1.22h-1.22v-2.43h-2.43v1.22h1.22v1.22h1.22v1.22h1.22v2.43h-1.22v-1.22h-1.22v1.22h1.22v2.43h-3.65v2.43h-2.43v-1.22h-1.22v-1.22h1.22v-1.22h-1.22v-2.43h-1.22v2.43h-1.22v-7.3h1.22v-1.22h1.22v1.22h2.43v2.43h2.43v1.22h1.22v-1.22h-1.22v-1.22h-1.22v-1.22h-1.22v-1.22h1.22v-1.22h1.22v1.22h2.43v-1.22h6.08v1.22h-3.65v1.22h1.22v1.22h1.22v-1.22h1.22v1.22h2.43v1.22h-1.22v1.22h1.22v2.43h-1.22v-1.22h-1.22v1.22h1.22v1.22h2.43v2.43h2.43v-2.43h6.08v1.22h2.43v1.22h-1.22v2.43h-2.43v1.22h3.65v1.22h-1.22v1.22h-1.22v1.22h-2.43v-1.22h-1.22v-1.22h-1.22v1.22h1.22v1.22h1.22v1.22h2.43v1.22h1.22v1.22h1.22v1.22h-3.65v1.22h-2.43v-1.22h-2.43v1.22h1.22v1.22h6.08v1.22h-1.22v1.22h2.43v2.43h-1.22v-1.22h-1.22v-1.22h-2.43v3.65h1.22v-2.43h1.22v1.22h1.22v1.22h1.22v3.65h-1.22v-1.22h-1.22v-1.22h-1.22v3.65h1.22v1.22h1.22v1.22ZM39.44,43.15h1.22v-1.22h-1.22v-1.22h-2.43v1.22h2.43v1.22ZM34.58,41.93h1.22v-1.22h-1.22v-1.22h-2.43v1.22h2.43v1.22ZM35.8,39.5h3.65v-3.65h-3.65v3.65ZM32.15,38.29h1.22v-1.22h-1.22v1.22ZM30.93,35.85h1.22v-1.22h-1.22v-1.22h-1.22v-1.22h1.22v-1.22h-1.22v-1.22h-3.65v1.22h2.43v1.22h-1.22v1.22h1.22v2.43h1.22v-1.22h1.22v1.22ZM38.23,34.64h1.22v-1.22h-1.22v-1.22h-1.22v-1.22h-2.43v-1.22h-1.22v-1.22h-1.22v-1.22h1.22v1.22h1.22v1.22h1.22v-1.22h2.43v-1.22h-4.86v-1.22h-1.22v-1.22h-2.43v1.22h1.22v2.43h-1.22v-1.22h-2.43v1.22h2.43v1.22h3.65v1.22h1.22v1.22h2.43v1.22h1.22v1.22ZM33.36,34.64h2.43v-1.22h-1.22v-1.22h-1.22v-1.22h-1.22v2.43h1.22v1.22ZM40.66,28.56h1.22v-1.22h-1.22v-1.22h-1.22v1.22h1.22v1.22ZM11.47,27.34h2.43v-1.22h-1.22v-1.22h-1.22v2.43ZM37.01,26.12h1.22v-1.22h-1.22v1.22ZM40.66,23.69h1.22v-1.22h-1.22v-1.22h-1.22v1.22h1.22v1.22ZM11.47,22.48h3.65v-1.22h-3.65v1.22ZM37.01,21.26h1.22v-1.22h-1.22v1.22ZM32.15,21.26h1.22v-1.22h-1.22v1.22ZM38.23,20.04h1.22v-2.43h-1.22v2.43ZM34.58,20.04h1.22v-1.22h-1.22v-1.22h-2.43v1.22h2.43v1.22ZM9.04,20.04h1.22v-1.22h-1.22v1.22ZM40.66,18.83h1.22v-1.22h-1.22v-1.22h-1.22v1.22h1.22v1.22ZM21.2,15.18h2.43v-1.22h-1.22v-2.43h-2.43v-1.22h-1.22v1.22h-1.22v-2.43h-1.22v2.43h1.22v1.22h1.22v2.43h1.22v-2.43h1.22v2.43ZM39.44,45.58h-1.22v-1.22h1.22v1.22ZM27.28,45.58h-1.22v-1.22h-1.22v-1.22h1.22v1.22h1.22v1.22ZM23.63,45.58h-1.22v-1.22h-1.22v1.22h-1.22v-1.22h-1.22v1.22h-1.22v-1.22h-1.22v-1.22h-1.22v-4.86h1.22v1.22h2.43v2.43h2.43v-1.22h-1.22v-1.22h-1.22v-1.22h1.22v1.22h1.22v1.22h1.22v3.65h1.22v1.22ZM16.34,43.15h2.43v-1.22h-1.22v-1.22h-1.22v2.43ZM16.34,45.58h-1.22v-1.22h1.22v1.22ZM28.5,40.72h-1.22v-1.22h1.22v1.22ZM38.23,38.29h-1.22v-1.22h1.22v1.22ZM17.55,38.29h-1.22v-1.22h-1.22v-1.22h-2.43v-1.22h2.43v1.22h1.22v-2.43h-3.65v-1.22h3.65v1.22h1.22v-1.22h1.22v3.65h3.65v1.22h-4.86v1.22ZM11.47,35.85h-2.43v-2.43h-1.22v-1.22h1.22v-2.43h-1.22v1.22h-1.22v-2.43h-1.22v-2.43h1.22v-1.22h-1.22v-2.43h2.43v1.22h-1.22v1.22h1.22v1.22h1.22v2.43h1.22v2.43h1.22v4.86ZM6.61,28.56h1.22v-1.22h-1.22v1.22ZM6.61,35.85h-1.22v-4.86h1.22v4.86ZM45.53,32.21h-1.22v-1.22h1.22v1.22ZM45.53,27.34h-1.22v-2.43h1.22v2.43ZM26.07,22.48h-3.65v-1.22h3.65v1.22ZM28.5,21.26h-1.22v-1.22h1.22v1.22ZM26.07,20.04h-3.65v-1.22h1.22v-1.22h2.43v2.43ZM35.8,13.96h-1.22v-1.22h1.22v1.22ZM28.5,13.96h-1.22v-1.22h1.22v1.22ZM35.8,11.53h-1.22v-2.43h-1.22v-1.22h-1.22v-2.43h2.43v1.22h-1.22v1.22h2.43v3.65ZM28.5,11.53h-1.22v-1.22h1.22v1.22ZM18.77,6.67h-1.22v-1.22h1.22v1.22Z"/>
    </g>
    <text class="cls-3" transform="translate(5.39 48.14)"><tspan class="cls-5" x="0" y="0">S</tspan><tspan x=".99" y="0">alem</tspan></text>
    <g>
      <rect class="cls-1" x="5.39" y="5.45" width="8.51" height="8.51"/>
      <rect class="cls-4" x="6.61" y="6.67" width="6.08" height="6.08"/>
      <rect class="cls-2" x="7.83" y="7.88" width="3.65" height="3.65"/>
      <rect class="cls-1" x="37.01" y="5.45" width="8.51" height="8.51"/>
      <rect class="cls-4" x="38.23" y="6.67" width="6.08" height="6.08"/>
      <rect class="cls-2" x="39.44" y="7.88" width="3.65" height="3.65"/>
      <rect class="cls-1" x="5.39" y="37.07" width="8.51" height="8.51"/>
      <rect class="cls-4" x="6.61" y="38.29" width="6.08" height="6.08"/>
      <rect class="cls-2" x="7.83" y="39.5" width="3.65" height="3.65"/>
    </g>
  </g>
</svg>