<?xml version="1.0" encoding="UTF-8"?>
<svg xmlns="http://www.w3.org/2000/svg" viewBox="0 0 50.92 51.03">
  <defs>
    <style>
      .cls-1 {
        fill: #b99651;
      }

      .cls-2 {
        fill: #173041;
      }

      .cls-3 {
        fill: #010101;
        font-family: MyriadPro-Regular, 'Myriad Pro';
        font-size: 2px;
      }

      .cls-4 {
        fill: #fff;
      }

      .cls-5 {
        letter-spacing: 0em;
      }

      .cls-6 {
        letter-spacing: 0em;
      }
    </style>
  </defs>
  <g id="Border">
    <rect class="cls-1" x="0" y="0" width="50.92" height="51.04"/>
    <rect class="cls-4" x="2.14" y="2.2" width="46.64" height="46.64"/>
  </g>
  <g id="Seattle">
    <g>
      <path class="cls-2" d="M15.12,6.06h1.22M17.55,6.06h3.65M22.42,6.06h6.08M30.93,6.06h3.65M19.99,7.27h1.22M24.85,7.27h2.43M28.5,7.27h2.43M32.15,7.27h1.22M16.34,8.49h1.22M19.99,8.49h2.43M29.72,8.49h3.65M15.12,9.71h1.22M19.99,9.71h1.22M22.42,9.71h1.22M26.07,9.71h4.86M33.36,9.71h1.22M15.12,10.92h1.22M17.55,10.92h2.43M22.42,10.92h1.22M27.28,10.92h3.65M33.36,10.92h1.22M15.12,12.14h1.22M17.55,12.14h2.43M21.2,12.14h1.22M24.85,12.14h1.22M28.5,12.14h1.22M32.15,12.14h1.22M34.58,12.14h1.22M15.12,13.36h1.22M17.55,13.36h1.22M19.99,13.36h1.22M22.42,13.36h1.22M24.85,13.36h1.22M27.28,13.36h1.22M29.72,13.36h1.22M32.15,13.36h1.22M34.58,13.36h1.22M15.12,14.57h1.22M17.55,14.57h1.22M19.99,14.57h1.22M23.63,14.57h4.86M30.93,14.57h4.86M5.39,15.79h1.22M10.26,15.79h1.22M12.69,15.79h4.86M18.77,15.79h2.43M26.07,15.79h1.22M28.5,15.79h4.86M35.8,15.79h6.08M44.31,15.79h1.22M5.39,17h2.43M9.04,17h1.22M15.12,17h2.43M18.77,17h1.22M21.2,17h3.65M27.28,17h1.22M32.15,17h2.43M35.8,17h1.22M40.66,17h2.43M5.39,18.22h3.65M11.47,18.22h2.43M15.12,18.22h1.22M19.99,18.22h1.22M23.63,18.22h1.22M26.07,18.22h1.22M29.72,18.22h2.43M33.36,18.22h1.22M35.8,18.22h2.43M40.66,18.22h1.22M43.09,18.22h1.22M7.83,19.44h1.22M11.47,19.44h1.22M13.91,19.44h7.3M22.42,19.44h2.43M26.07,19.44h3.65M30.93,19.44h1.22M34.58,19.44h3.65M43.09,19.44h1.22M9.04,20.65h1.22M11.47,20.65h3.65M16.34,20.65h1.22M21.2,20.65h3.65M27.28,20.65h3.65M33.36,20.65h1.22M37.01,20.65h1.22M39.44,20.65h2.43M43.09,20.65h2.43M7.83,21.87h3.65M13.91,21.87h6.08M24.85,21.87h1.22M28.5,21.87h1.22M33.36,21.87h1.22M40.66,21.87h2.43M5.39,23.08h1.22M9.04,23.08h1.22M11.47,23.08h2.43M16.34,23.08h1.22M18.77,23.08h2.43M22.42,23.08h1.22M24.85,23.08h2.43M28.5,23.08h1.22M32.15,23.08h2.43M35.8,23.08h2.43M40.66,23.08h1.22M43.09,23.08h1.22M5.39,24.3h4.86M13.91,24.3h4.86M22.42,24.3h1.22M26.07,24.3h14.59M6.61,25.52h2.43M12.69,25.52h6.08M19.99,25.52h2.43M23.63,25.52h1.22M26.07,25.52h1.22M29.72,25.52h3.65M34.58,25.52h1.22M37.01,25.52h1.22M39.44,25.52h1.22M43.09,25.52h1.22M5.39,26.73h1.22M7.83,26.73h1.22M10.26,26.73h2.43M16.34,26.73h2.43M19.99,26.73h8.51M30.93,26.73h1.22M33.36,26.73h2.43M40.66,26.73h3.65M7.83,27.95h1.22M11.47,27.95h3.65M19.99,27.95h4.86M27.28,27.95h1.22M29.72,27.95h1.22M33.36,27.95h2.43M38.23,27.95h1.22M40.66,27.95h1.22M43.09,27.95h1.22M5.39,29.17h2.43M10.26,29.17h2.43M13.91,29.17h1.22M18.77,29.17h1.22M21.2,29.17h2.43M28.5,29.17h1.22M32.15,29.17h1.22M34.58,29.17h4.86M43.09,29.17h2.43M5.39,30.38h2.43M12.69,30.38h1.22M15.12,30.38h1.22M18.77,30.38h7.3M28.5,30.38h1.22M32.15,30.38h1.22M37.01,30.38h4.86M43.09,30.38h2.43M5.39,31.6h1.22M11.47,31.6h1.22M15.12,31.6h1.22M17.55,31.6h2.43M21.2,31.6h2.43M26.07,31.6h4.86M33.36,31.6h1.22M35.8,31.6h1.22M38.23,31.6h1.22M43.09,31.6h1.22M9.04,32.81h1.22M11.47,32.81h2.43M15.12,32.81h1.22M18.77,32.81h1.22M23.63,32.81h1.22M27.28,32.81h1.22M29.72,32.81h7.3M38.23,32.81h1.22M43.09,32.81h1.22M7.83,34.03h1.22M10.26,34.03h2.43M15.12,34.03h2.43M18.77,34.03h2.43M22.42,34.03h4.86M30.93,34.03h1.22M33.36,34.03h1.22M35.8,34.03h2.43M44.31,34.03h1.22M5.39,35.25h4.86M12.69,35.25h2.43M16.34,35.25h1.22M19.99,35.25h1.22M22.42,35.25h1.22M26.07,35.25h3.65M30.93,35.25h2.43M34.58,35.25h6.08M15.12,36.46h1.22M17.55,36.46h1.22M22.42,36.46h3.65M27.28,36.46h1.22M32.15,36.46h3.65M39.44,36.46h1.22M41.88,36.46h2.43M15.12,37.68h6.08M23.63,37.68h1.22M26.07,37.68h1.22M29.72,37.68h3.65M34.58,37.68h1.22M37.01,37.68h1.22M39.44,37.68h2.43M43.09,37.68h1.22M16.34,38.89h6.08M24.85,38.89h3.65M29.72,38.89h2.43M34.58,38.89h1.22M39.44,38.89h1.22M43.09,38.89h2.43M15.12,40.11h1.22M17.55,40.11h1.22M19.99,40.11h3.65M27.28,40.11h3.65M34.58,40.11h7.3M17.55,41.33h6.08M24.85,41.33h2.43M28.5,41.33h1.22M32.15,41.33h2.43M37.01,41.33h4.86M43.09,41.33h1.22M16.34,42.54h1.22M18.77,42.54h1.22M24.85,42.54h1.22M27.28,42.54h2.43M30.93,42.54h1.22M35.8,42.54h4.86M41.88,42.54h1.22M18.77,43.76h4.86M26.07,43.76h1.22M28.5,43.76h8.51M15.12,44.98h1.22M18.77,44.98h1.22M21.2,44.98h1.22M23.63,44.98h1.22M26.07,44.98h1.22M30.93,44.98h4.86M37.01,44.98h1.22M44.31,44.98h1.22"/>
      <path class="cls-2" d="M45.53,45.58h-1.22v-1.22h1.22v1.22ZM38.23,45.58h-1.22v-1.22h-1.22v1.22h-4.86v-1.22h-2.43v-1.22h-1.22v-1.22h-1.22v1.22h1.22v2.43h-1.22v-2.43h-1.22v-2.43h2.43v1.22h1.22v-1.22h-1.22v-1.22h-2.43v-1.22h-1.22v-1.22h-1.22v-3.65h1.22v-1.22h-2.43v-1.22h-1.22v2.43h1.22v2.43h-1.22v-1.22h-1.22v-2.43h-1.22v-1.22h1.22v-2.43h1.22v1.22h1.22v-1.22h-1.22v-3.65h2.43v1.22h1.22v-1.22h-1.22v-2.43h1.22v2.43h1.22v1.22h1.22v-2.43h-1.22v-2.43h-3.65v-1.22h-3.65v1.22h2.43v1.22h1.22v1.22h-2.43v-1.22h-1.22v1.22h1.22v3.65h-2.43v-1.22h-3.65v-1.22h1.22v-1.22h-2.43v-1.22h-1.22v2.43h-1.22v3.65h-1.22v-2.43h-1.22v-1.22h-1.22v-2.43h1.22v1.22h2.43v-1.22h-1.22v-1.22h1.22v-1.22h-1.22v-1.22h-2.43v-3.65h1.22v1.22h1.22v1.22h1.22v2.43h1.22v1.22h1.22v1.22h2.43v1.22h2.43v-1.22h-2.43v-1.22h-2.43v-3.65h2.43v1.22h1.22v-2.43h-2.43v-1.22h2.43v-6.08h1.22v6.08h1.22v2.43h-1.22v1.22h3.65v-1.22h-1.22v-2.43h-1.22v-4.86h2.43v2.43h1.22v3.65h3.65v4.86h1.22v1.22h1.22v1.22h1.22v-2.43h-1.22v-1.22h-1.22v-2.43h1.22v1.22h2.43v1.22h1.22v1.22h-1.22v2.43h2.43v-1.22h1.22v-2.43h1.22v3.65h1.22v-1.22h2.43v1.22h2.43v2.43h2.43v-1.22h1.22v3.65h1.22v2.43h-1.22v2.43h1.22v1.22h-1.22v-1.22h-1.22v-6.08h-1.22v1.22h-1.22v-2.43h-1.22v-1.22h-1.22v1.22h-1.22v-1.22h-1.22v3.65h2.43v-1.22h1.22v2.43h2.43v1.22h-2.43v2.43h-1.22v-2.43h-1.22v-1.22h-2.43v-1.22h-1.22v-2.43h-1.22v1.22h-1.22v-1.22h-1.22v-1.22h-2.43v1.22h1.22v2.43h1.22v2.43h1.22v1.22h2.43v-1.22h-1.22v-2.43h1.22v2.43h1.22v1.22h1.22v-1.22h1.22v2.43h1.22v1.22h2.43v2.43h1.22v1.22h-1.22v1.22h1.22v2.43h1.22v1.22h-1.22v-1.22h-1.22v1.22h-3.65v1.22h1.22v1.22ZM32.15,43.15h3.65v-1.22h1.22v-1.22h-2.43v-3.65h-1.22v1.22h-1.22v1.22h-1.22v1.22h-1.22v2.43h1.22v-1.22h1.22v1.22ZM35.8,39.5h3.65v-3.65h-3.65v3.65ZM28.5,39.5h1.22v-2.43h2.43v-1.22h-1.22v-2.43h-1.22v-1.22h-1.22v1.22h-1.22v-1.22h-1.22v-1.22h-2.43v1.22h1.22v1.22h2.43v1.22h2.43v1.22h-1.22v1.22h-1.22v-1.22h-1.22v-1.22h-2.43v1.22h2.43v1.22h1.22v1.22h1.22v1.22ZM24.85,38.29h1.22v-1.22h-1.22v1.22ZM33.36,35.85h1.22v-1.22h-1.22v-1.22h-1.22v1.22h1.22v1.22ZM34.58,34.64h1.22v-1.22h-1.22v1.22ZM26.07,30.99h2.43v-2.43h-1.22v-1.22h-2.43v1.22h-1.22v1.22h2.43v1.22ZM33.36,26.12h1.22v-1.22h-1.22v1.22ZM15.12,21.26h1.22v-1.22h-1.22v1.22ZM21.2,20.04h1.22v-1.22h1.22v-1.22h-2.43v-1.22h-1.22v1.22h1.22v2.43ZM12.69,20.04h1.22v-1.22h-1.22v1.22ZM18.77,15.18h1.22v-2.43h-1.22v2.43ZM24.85,45.58h-1.22v-1.22h-1.22v1.22h-1.22v-1.22h-1.22v1.22h-1.22v-3.65h-1.22v-2.43h-1.22v-1.22h-1.22v-2.43h-2.43v-1.22h-2.43v-1.22h-1.22v-1.22h1.22v1.22h1.22v-2.43h1.22v1.22h1.22v1.22h-1.22v1.22h2.43v1.22h1.22v1.22h1.22v-1.22h-1.22v-1.22h-1.22v-4.86h-1.22v-1.22h-1.22v1.22h1.22v1.22h-1.22v-1.22h-2.43v-1.22h1.22v-1.22h-1.22v-1.22h2.43v1.22h2.43v2.43h1.22v3.65h1.22v2.43h1.22v1.22h2.43v1.22h1.22v1.22h1.22v2.43h-3.65v1.22h3.65v1.22h1.22v1.22ZM18.77,40.72h1.22v-1.22h-1.22v1.22ZM16.34,45.58h-1.22v-1.22h1.22v1.22ZM17.55,43.15h-1.22v-1.22h1.22v1.22ZM44.31,41.93h-1.22v-1.22h1.22v1.22ZM34.58,41.93h-2.43v-1.22h2.43v1.22ZM16.34,40.72h-1.22v-1.22h1.22v1.22ZM45.53,39.5h-2.43v-2.43h-1.22v-1.22h2.43v2.43h1.22v1.22ZM38.23,38.29h-1.22v-1.22h1.22v1.22ZM10.26,35.85h-4.86v-1.22h2.43v-1.22h1.22v1.22h1.22v1.22ZM6.61,32.21h-1.22v-3.65h2.43v2.43h-1.22v1.22ZM30.93,28.56h-1.22v-1.22h1.22v1.22ZM6.61,27.34h-1.22v-1.22h1.22v1.22ZM44.31,23.69h-1.22v-1.22h-1.22v1.22h-1.22v-2.43h-1.22v-1.22h2.43v1.22h1.22v1.22h1.22v1.22ZM45.53,21.26h-2.43v-3.65h-1.22v1.22h-1.22v-2.43h-3.65v1.22h1.22v3.65h-1.22v-1.22h-2.43v-1.22h-1.22v-1.22h-1.22v-1.22h-3.65v-1.22h-1.22v1.22h1.22v1.22h-1.22v-1.22h-1.22v-1.22h-2.43v-1.22h-1.22v-1.22h-1.22v-1.22h1.22v1.22h1.22v1.22h1.22v-2.43h1.22v2.43h1.22v-1.22h1.22v2.43h2.43v-1.22h-1.22v-1.22h-1.22v-1.22h-1.22v-1.22h-1.22v-1.22h3.65v-1.22h-1.22v-1.22h-1.22v1.22h-2.43v-1.22h-2.43v-1.22h6.08v1.22h2.43v1.22h1.22v-1.22h-1.22v-1.22h3.65v1.22h-1.22v2.43h1.22v2.43h1.22v3.65h6.08v1.22h1.22v1.22h1.22v2.43h1.22v1.22ZM34.58,18.83h1.22v-3.65h-2.43v1.22h1.22v2.43ZM33.36,13.96h1.22v-2.43h-1.22v-2.43h-2.43v2.43h-1.22v1.22h1.22v1.22h1.22v-2.43h1.22v2.43ZM32.15,20.04h-1.22v-1.22h-1.22v-1.22h2.43v2.43ZM10.26,17.61h-1.22v-1.22h1.22v1.22ZM45.53,16.4h-1.22v-1.22h1.22v1.22ZM11.47,16.4h-1.22v-1.22h1.22v1.22ZM23.63,11.53h-1.22v-2.43h-1.22v1.22h-1.22v-3.65h-2.43v-1.22h3.65v2.43h1.22v1.22h1.22v2.43ZM17.55,9.1h-1.22v-1.22h1.22v1.22ZM16.34,6.67h-1.22v-1.22h1.22v1.22Z"/>
    </g>
    <text class="cls-3" transform="translate(5.39 48.14)"><tspan class="cls-6" x="0" y="0">S</tspan><tspan x="1" y="0">e</tspan><tspan class="cls-5" x="2" y="0">a</tspan><tspan x="2.96" y="0">ttle</tspan></text>
    <g>
      <rect class="cls-1" x="5.39" y="5.45" width="8.51" height="8.51"/>
      <rect class="cls-4" x="6.61" y="6.67" width="6.08" height="6.08"/>
      <rect class="cls-2" x="7.83" y="7.88" width="3.65" height="3.65"/>
      <rect class="cls-1" x="37.01" y="5.45" width="8.51" height="8.51"/>
      <rect class="cls-4" x="38.23" y="6.67" width="6.08" height="6.08"/>
      <rect class="cls-2" x="39.44" y="7.88" width="3.65" height="3.65"/>
      <rect class="cls-1" x="5.39" y="37.07" width="8.51" height="8.51"/>
      <rect class="cls-4" x="6.61" y="38.29" width="6.08" height="6.08"/>
      <rect class="cls-2" x="7.83" y="39.5" width="3.65" height="3.65"/>
    </g>
  </g>
</svg>