<?xml version="1.0" encoding="UTF-8"?>
<svg xmlns="http://www.w3.org/2000/svg" viewBox="0 0 50.92 51.03">
  <defs>
    <style>
      .cls-1 {
        fill: #b99651;
      }

      .cls-2 {
        fill: #173041;
      }

      .cls-3 {
        fill: #010101;
        font-family: MyriadPro-Regular, 'Myriad Pro';
        font-size: 2px;
      }

      .cls-4 {
        fill: #fff;
      }

      .cls-5 {
        letter-spacing: -.06em;
      }

      .cls-6 {
        letter-spacing: 0em;
      }
    </style>
  </defs>
  <g id="Border">
    <rect class="cls-1" x="0" y="0" width="50.92" height="51.04"/>
    <rect class="cls-4" x="2.14" y="2.2" width="46.64" height="46.64"/>
  </g>
  <g id="Tacoma">
    <g>
      <path class="cls-2" d="M16.34,6.06h1.22M18.77,6.06h1.22M24.85,6.06h1.22M27.28,6.06h7.3M19.99,7.27h1.22M23.63,7.27h2.43M27.28,7.27h1.22M30.93,7.27h1.22M15.12,8.49h4.86M22.42,8.49h1.22M24.85,8.49h1.22M29.72,8.49h6.08M15.12,9.71h1.22M18.77,9.71h1.22M27.28,9.71h2.43M30.93,9.71h1.22M34.58,9.71h1.22M15.12,10.92h4.86M21.2,10.92h4.86M29.72,10.92h2.43M33.36,10.92h1.22M15.12,12.14h1.22M17.55,12.14h1.22M22.42,12.14h1.22M28.5,12.14h1.22M30.93,12.14h2.43M15.12,13.36h1.22M17.55,13.36h1.22M19.99,13.36h1.22M22.42,13.36h1.22M24.85,13.36h1.22M27.28,13.36h1.22M29.72,13.36h1.22M32.15,13.36h1.22M34.58,13.36h1.22M15.12,14.57h1.22M17.55,14.57h1.22M19.99,14.57h1.22M24.85,14.57h1.22M28.5,14.57h3.65M5.39,15.79h1.22M7.83,15.79h6.08M16.34,15.79h7.3M26.07,15.79h1.22M28.5,15.79h1.22M32.15,15.79h2.43M37.01,15.79h6.08M9.04,17h2.43M16.34,17h2.43M19.99,17h2.43M26.07,17h4.86M32.15,17h2.43M37.01,17h2.43M40.66,17h4.86M5.39,18.22h1.22M9.04,18.22h1.22M11.47,18.22h3.65M17.55,18.22h1.22M19.99,18.22h7.3M29.72,18.22h1.22M32.15,18.22h1.22M34.58,18.22h3.65M39.44,18.22h1.22M41.88,18.22h2.43M7.83,19.44h4.86M17.55,19.44h1.22M19.99,19.44h2.43M23.63,19.44h6.08M33.36,19.44h1.22M35.8,19.44h2.43M39.44,19.44h4.86M5.39,20.65h2.43M12.69,20.65h1.22M15.12,20.65h2.43M18.77,20.65h2.43M22.42,20.65h1.22M24.85,20.65h1.22M29.72,20.65h7.3M38.23,20.65h3.65M6.61,21.87h1.22M9.04,21.87h1.22M17.55,21.87h2.43M21.2,21.87h1.22M23.63,21.87h1.22M27.28,21.87h1.22M30.93,21.87h1.22M33.36,21.87h1.22M35.8,21.87h3.65M40.66,21.87h4.86M6.61,23.08h2.43M10.26,23.08h4.86M16.34,23.08h1.22M18.77,23.08h1.22M21.2,23.08h4.86M27.28,23.08h1.22M29.72,23.08h1.22M35.8,23.08h2.43M39.44,23.08h1.22M41.88,23.08h2.43M6.61,24.3h1.22M9.04,24.3h1.22M13.91,24.3h1.22M17.55,24.3h3.65M23.63,24.3h1.22M30.93,24.3h1.22M33.36,24.3h1.22M35.8,24.3h3.65M40.66,24.3h2.43M5.39,25.52h1.22M9.04,25.52h1.22M11.47,25.52h2.43M16.34,25.52h2.43M19.99,25.52h4.86M26.07,25.52h1.22M32.15,25.52h4.86M38.23,25.52h2.43M44.31,25.52h1.22M5.39,26.73h7.3M18.77,26.73h1.22M24.85,26.73h1.22M27.28,26.73h4.86M33.36,26.73h6.08M40.66,26.73h2.43M44.31,26.73h1.22M6.61,27.95h1.22M9.04,27.95h1.22M12.69,27.95h1.22M22.42,27.95h3.65M27.28,27.95h1.22M29.72,27.95h2.43M35.8,27.95h1.22M38.23,27.95h2.43M41.88,27.95h2.43M6.61,29.17h1.22M13.91,29.17h1.22M24.85,29.17h1.22M28.5,29.17h1.22M30.93,29.17h3.65M38.23,29.17h7.3M7.83,30.38h6.08M17.55,30.38h2.43M22.42,30.38h1.22M27.28,30.38h1.22M30.93,30.38h1.22M34.58,30.38h2.43M39.44,30.38h2.43M5.39,31.6h1.22M7.83,31.6h2.43M17.55,31.6h1.22M22.42,31.6h4.86M29.72,31.6h4.86M37.01,31.6h1.22M44.31,31.6h1.22M5.39,32.81h1.22M9.04,32.81h7.3M19.99,32.81h1.22M26.07,32.81h1.22M28.5,32.81h1.22M30.93,32.81h1.22M35.8,32.81h1.22M38.23,32.81h6.08M5.39,34.03h1.22M7.83,34.03h1.22M15.12,34.03h3.65M21.2,34.03h1.22M24.85,34.03h1.22M27.28,34.03h10.95M39.44,34.03h4.86M5.39,35.25h1.22M12.69,35.25h1.22M15.12,35.25h1.22M17.55,35.25h3.65M26.07,35.25h4.86M32.15,35.25h1.22M34.58,35.25h6.08M43.09,35.25h2.43M15.12,36.46h2.43M18.77,36.46h1.22M21.2,36.46h2.43M24.85,36.46h6.08M32.15,36.46h3.65M39.44,36.46h1.22M41.88,36.46h1.22M44.31,36.46h1.22M18.77,37.68h8.51M29.72,37.68h1.22M32.15,37.68h3.65M37.01,37.68h1.22M39.44,37.68h1.22M41.88,37.68h2.43M15.12,38.89h2.43M18.77,38.89h1.22M21.2,38.89h2.43M26.07,38.89h2.43M29.72,38.89h1.22M33.36,38.89h2.43M39.44,38.89h6.08M15.12,40.11h6.08M23.63,40.11h2.43M29.72,40.11h3.65M34.58,40.11h7.3M43.09,40.11h2.43M15.12,41.33h2.43M18.77,41.33h2.43M23.63,41.33h1.22M26.07,41.33h2.43M30.93,41.33h1.22M33.36,41.33h1.22M35.8,41.33h1.22M39.44,41.33h2.43M44.31,41.33h1.22M15.12,42.54h4.86M21.2,42.54h6.08M29.72,42.54h9.73M40.66,42.54h1.22M21.2,43.76h3.65M27.28,43.76h1.22M30.93,43.76h1.22M39.44,43.76h3.65M15.12,44.98h1.22M17.55,44.98h4.86M23.63,44.98h1.22M26.07,44.98h1.22M29.72,44.98h1.22M32.15,44.98h4.86M38.23,44.98h1.22M43.09,44.98h1.22"/>
      <path class="cls-2" d="M44.31,45.58h-1.22v-1.22h-3.65v-1.22h-7.3v1.22h4.86v1.22h-4.86v-1.22h-1.22v-1.22h-1.22v-1.22h1.22v-1.22h-1.22v-3.65h-2.43v1.22h1.22v1.22h-2.43v-1.22h-2.43v1.22h2.43v1.22h2.43v1.22h-1.22v1.22h1.22v1.22h-1.22v-1.22h-2.43v2.43h-1.22v-1.22h-1.22v1.22h-4.86v-1.22h3.65v-2.43h-1.22v1.22h-4.86v-4.86h2.43v1.22h1.22v-3.65h-1.22v-1.22h-1.22v1.22h1.22v1.22h-2.43v-3.65h-6.08v-1.22h-1.22v-2.43h-1.22v-2.43h-1.22v-2.43h1.22v1.22h2.43v-2.43h-1.22v1.22h-1.22v-3.65h-1.22v-1.22h2.43v2.43h1.22v1.22h1.22v2.43h1.22v-1.22h2.43v1.22h-1.22v1.22h1.22v1.22h1.22v1.22h-1.22v-1.22h-1.22v-1.22h-2.43v1.22h-1.22v-1.22h-1.22v2.43h6.08v1.22h-3.65v1.22h6.08v1.22h2.43v1.22h2.43v1.22h2.43v1.22h1.22v-1.22h1.22v-1.22h-1.22v-1.22h1.22v1.22h1.22v-1.22h-1.22v-1.22h-3.65v-2.43h1.22v1.22h3.65v2.43h1.22v-1.22h1.22v1.22h1.22v-1.22h-1.22v-1.22h1.22v-2.43h-1.22v-1.22h-1.22v1.22h1.22v1.22h-1.22v-1.22h-1.22v-2.43h-1.22v-1.22h1.22v1.22h4.86v2.43h2.43v1.22h2.43v1.22h1.22v1.22h6.08v2.43h1.22v2.43h-1.22v-1.22h-1.22v-1.22h-2.43v3.65h1.22v-2.43h1.22v1.22h1.22v1.22h1.22v3.65h-1.22v-1.22h-1.22v-1.22h-1.22v3.65h1.22v1.22h1.22v1.22ZM39.44,43.15h1.22v-1.22h-1.22v-1.22h-2.43v1.22h2.43v1.22ZM34.58,41.93h1.22v-1.22h-1.22v-1.22h-1.22v-1.22h-1.22v-3.65h-1.22v4.86h2.43v1.22h1.22v1.22ZM32.15,41.93h1.22v-1.22h-1.22v1.22ZM24.85,41.93h1.22v-1.22h-1.22v1.22ZM21.2,41.93h2.43v-2.43h-2.43v-1.22h-1.22v1.22h1.22v2.43ZM17.55,41.93h1.22v-1.22h-1.22v1.22ZM35.8,39.5h3.65v-3.65h-3.65v3.65ZM19.99,37.07h1.22v-1.22h-1.22v1.22ZM33.36,35.85h1.22v-1.22h-1.22v1.22ZM38.23,34.64h1.22v-1.22h-1.22v-1.22h-1.22v-1.22h-2.43v-1.22h-2.43v1.22h2.43v1.22h-2.43v1.22h3.65v-1.22h1.22v1.22h1.22v1.22ZM39.44,45.58h-1.22v-1.22h1.22v1.22ZM30.93,45.58h-1.22v-1.22h1.22v1.22ZM27.28,45.58h-1.22v-1.22h1.22v1.22ZM16.34,45.58h-1.22v-1.22h1.22v1.22ZM38.23,38.29h-1.22v-1.22h1.22v1.22ZM13.91,35.85h-1.22v-1.22h1.22v1.22ZM6.61,35.85h-1.22v-4.86h1.22v4.86ZM22.42,34.64h-1.22v-1.22h-1.22v-1.22h1.22v1.22h1.22v1.22ZM9.04,34.64h-1.22v-1.22h1.22v1.22ZM45.53,32.21h-1.22v-1.22h1.22v1.22ZM18.77,32.21h-1.22v-2.43h2.43v1.22h-1.22v1.22ZM41.88,30.99h-2.43v-1.22h-1.22v-2.43h-1.22v1.22h-1.22v-1.22h-2.43v-1.22h-1.22v-1.22h-1.22v-1.22h-1.22v-1.22h1.22v1.22h1.22v1.22h1.22v-1.22h1.22v1.22h1.22v-3.65h-1.22v1.22h-1.22v-1.22h-1.22v1.22h-1.22v-1.22h-1.22v-1.22h-3.65v1.22h-1.22v-1.22h-1.22v-1.22h-1.22v1.22h1.22v1.22h1.22v1.22h1.22v1.22h-1.22v2.43h1.22v3.65h-1.22v-1.22h-2.43v-1.22h2.43v-1.22h-4.86v-1.22h-1.22v1.22h1.22v1.22h-1.22v-1.22h-2.43v-1.22h1.22v-1.22h-1.22v-1.22h1.22v1.22h1.22v-1.22h-1.22v-1.22h-2.43v-1.22h2.43v1.22h1.22v-1.22h-1.22v-2.43h-1.22v-2.43h-1.22v-7.3h4.86v3.65h-1.22v3.65h1.22v-2.43h1.22v2.43h2.43v1.22h-1.22v1.22h3.65v-2.43h-1.22v-2.43h1.22v2.43h1.22v1.22h1.22v-2.43h-1.22v-1.22h1.22v1.22h1.22v-1.22h-1.22v-1.22h1.22v1.22h1.22v1.22h1.22v1.22h2.43v2.43h2.43v-2.43h6.08v1.22h2.43v1.22h-1.22v2.43h-2.43v1.22h3.65v1.22h-1.22v1.22h-1.22v1.22h-2.43v-1.22h-1.22v-1.22h-1.22v1.22h1.22v1.22h1.22v1.22h2.43v1.22h1.22v1.22h1.22v1.22h-3.65v1.22ZM40.66,28.56h1.22v-1.22h-1.22v-1.22h-1.22v1.22h1.22v1.22ZM37.01,26.12h1.22v-1.22h-1.22v1.22ZM21.2,24.91h2.43v-1.22h-2.43v-2.43h-1.22v2.43h1.22v1.22ZM40.66,23.69h1.22v-1.22h-1.22v-1.22h-1.22v1.22h1.22v1.22ZM22.42,22.48h1.22v-1.22h-1.22v-1.22h-1.22v1.22h1.22v1.22ZM37.01,21.26h1.22v-1.22h-1.22v1.22ZM38.23,20.04h1.22v-2.43h-1.22v2.43ZM34.58,20.04h1.22v-1.22h-1.22v-1.22h-1.22v1.22h1.22v1.22ZM29.72,20.04h3.65v-1.22h-1.22v-3.65h-2.43v1.22h1.22v2.43h-1.22v-1.22h-2.43v1.22h2.43v1.22ZM18.77,20.04h1.22v-3.65h-1.22v3.65ZM40.66,18.83h1.22v-1.22h-1.22v-1.22h-1.22v1.22h1.22v1.22ZM16.34,15.18h1.22v-3.65h-1.22v3.65ZM16.34,10.31h2.43v-1.22h-2.43v1.22ZM28.5,30.99h-1.22v-1.22h1.22v1.22ZM45.53,27.34h-1.22v-2.43h1.22v2.43ZM15.12,24.91h-1.22v-1.22h-3.65v-1.22h-1.22v-1.22h1.22v1.22h4.86v2.43ZM28.5,23.69h-1.22v-2.43h1.22v2.43ZM13.91,21.26h-1.22v-1.22h-4.86v-1.22h1.22v-2.43h-1.22v-1.22h6.08v1.22h-2.43v1.22h3.65v1.22h-2.43v1.22h1.22v1.22ZM10.26,18.83h1.22v-1.22h-1.22v1.22ZM6.61,18.83h-1.22v-1.22h1.22v1.22ZM6.61,16.4h-1.22v-1.22h1.22v1.22ZM35.8,13.96h-1.22v-1.22h1.22v1.22ZM33.36,13.96h-1.22v-1.22h-1.22v-1.22h-1.22v-1.22h-2.43v-1.22h2.43v1.22h1.22v-1.22h-1.22v-1.22h1.22v-1.22h-2.43v1.22h-1.22v-2.43h7.3v1.22h-2.43v1.22h3.65v2.43h-1.22v-1.22h-2.43v2.43h1.22v2.43ZM23.63,13.96h-1.22v-2.43h-1.22v-1.22h4.86v1.22h-2.43v2.43ZM34.58,11.53h-1.22v-1.22h1.22v1.22ZM26.07,9.1h-1.22v-1.22h-1.22v-1.22h1.22v-1.22h1.22v3.65ZM23.63,9.1h-1.22v-1.22h1.22v1.22ZM21.2,7.88h-1.22v-1.22h-1.22v-1.22h1.22v1.22h1.22v1.22ZM17.55,6.67h-1.22v-1.22h1.22v1.22Z"/>
    </g>
    <g>
      <rect class="cls-1" x="5.39" y="5.45" width="8.51" height="8.51"/>
      <rect class="cls-4" x="6.61" y="6.67" width="6.08" height="6.08"/>
      <rect class="cls-2" x="7.83" y="7.88" width="3.65" height="3.65"/>
      <rect class="cls-1" x="37.01" y="5.45" width="8.51" height="8.51"/>
      <rect class="cls-4" x="38.23" y="6.67" width="6.08" height="6.08"/>
      <rect class="cls-2" x="39.44" y="7.88" width="3.65" height="3.65"/>
      <rect class="cls-1" x="5.39" y="37.07" width="8.51" height="8.51"/>
      <rect class="cls-4" x="6.61" y="38.29" width="6.08" height="6.08"/>
      <rect class="cls-2" x="7.83" y="39.5" width="3.65" height="3.65"/>
    </g>
    <text class="cls-3" transform="translate(5.39 48.14)"><tspan class="cls-5" x="0" y="0">T</tspan><tspan x=".87" y="0">a</tspan><tspan class="cls-6" x="1.83" y="0">c</tspan><tspan x="2.71" y="0">oma</tspan></text>
  </g>
</svg>